<svg width="46" height="62" viewBox="0 0 46 62" fill="none" xmlns="http://www.w3.org/2000/svg">
<g opacity="0.3">
<path opacity="0.3" d="M39.0733 12.8069C37.5438 12.8056 36.0774 12.242 34.9959 11.2399C33.9145 10.2378 33.3062 8.8791 33.3048 7.46196V0.040772H7.531C6.54215 0.0404315 5.56289 0.220572 4.64921 0.570965C3.73552 0.921358 2.90532 1.43513 2.20597 2.08288C1.50661 2.73064 0.951841 3.49971 0.573339 4.34617C0.194837 5.19263 -6.82769e-08 6.09989 0 7.01612V49.0654C-6.82768e-08 49.9816 0.194837 50.8889 0.573339 51.7354C0.951841 52.5818 1.50661 53.3509 2.20597 53.9987C2.90532 54.6464 3.73552 55.1601 4.64921 55.5105C5.56289 55.8609 6.54215 56.0411 7.531 56.0408H38.4718C39.4604 56.0408 40.4393 55.8604 41.3527 55.5098C42.2661 55.1593 43.096 54.6454 43.7951 53.9977C44.4941 53.35 45.0486 52.581 45.4269 51.7347C45.8053 50.8884 46 49.9814 46 49.0654V12.8069H39.0733Z" fill="#0072FF"/>
</g>
<path d="M45.9998 13.8186H39.0732C37.5437 13.8171 36.0773 13.2088 34.9959 12.1273C33.9144 11.0459 33.3062 9.57948 33.3047 8.05003V0.0407715L45.9998 13.8186Z" fill="#0072FF"/>
<path d="M36.5358 21.1361H7.65418C7.37669 21.1361 7.11058 21.0259 6.91437 20.8297C6.71816 20.6334 6.60791 20.3673 6.60791 20.0898C6.60755 19.9522 6.63435 19.8158 6.68676 19.6886C6.73918 19.5613 6.81619 19.4456 6.91338 19.3482C7.01057 19.2507 7.12604 19.1734 7.25317 19.1207C7.38029 19.0679 7.51655 19.0408 7.65418 19.0408H36.5358C36.814 19.0408 37.0808 19.1513 37.2776 19.348C37.4743 19.5448 37.5849 19.8116 37.5849 20.0898C37.5841 20.3676 37.4733 20.6337 37.2766 20.8299C37.0799 21.026 36.8135 21.1361 36.5358 21.1361Z" fill="#0072FF"/>
<path d="M36.5358 27.3944H7.65418C7.37669 27.3944 7.11058 27.2842 6.91437 27.088C6.71816 26.8917 6.60791 26.6256 6.60791 26.3481C6.60755 26.2105 6.63435 26.0741 6.68676 25.9469C6.73918 25.8196 6.81619 25.7039 6.91338 25.6065C7.01057 25.509 7.12604 25.4317 7.25317 25.379C7.38029 25.3262 7.51655 25.2991 7.65418 25.2991H36.5358C36.814 25.2991 37.0808 25.4095 37.2776 25.6063C37.4743 25.803 37.5849 26.0699 37.5849 26.3481C37.5841 26.6259 37.4733 26.892 37.2766 27.0881C37.0799 27.2842 36.8135 27.3944 36.5358 27.3944Z" fill="#0072FF"/>
<path d="M36.5358 33.6525H7.65418C7.51655 33.6525 7.38029 33.6253 7.25317 33.5726C7.12604 33.5198 7.01057 33.4425 6.91338 33.3451C6.81619 33.2476 6.73918 33.1319 6.68676 33.0047C6.63435 32.8774 6.60755 32.741 6.60791 32.6034C6.60791 32.3259 6.71816 32.0598 6.91437 31.8636C7.11058 31.6674 7.37669 31.5571 7.65418 31.5571H36.5358C36.8135 31.5571 37.0799 31.6672 37.2766 31.8634C37.4733 32.0595 37.5841 32.3257 37.5849 32.6034C37.5849 32.8816 37.4743 33.1485 37.2776 33.3452C37.0808 33.5419 36.814 33.6525 36.5358 33.6525Z" fill="#0072FF"/>
<path d="M31.5364 39.9105H14.0463C13.9086 39.9105 13.7724 39.8834 13.6453 39.8306C13.5181 39.7779 13.4027 39.7005 13.3055 39.603C13.2083 39.5056 13.1313 39.39 13.0789 39.2627C13.0264 39.1354 12.9996 38.9991 13 38.8615C13 38.584 13.1102 38.3178 13.3065 38.1216C13.5027 37.9254 13.7688 37.8152 14.0463 37.8152H31.5364C31.8139 37.8152 32.08 37.9254 32.2762 38.1216C32.4724 38.3178 32.5826 38.584 32.5826 38.8615C32.583 38.9991 32.5562 39.1354 32.5038 39.2627C32.4514 39.39 32.3744 39.5056 32.2772 39.603C32.18 39.7005 32.0645 39.7779 31.9374 39.8306C31.8103 39.8834 31.674 39.9105 31.5364 39.9105Z" fill="#0072FF"/>
<path d="M36.5256 46.0408H9.47441C7.55554 46.0408 6 47.5949 6 49.512V57.5696C6 59.4867 7.55554 61.0408 9.47441 61.0408H36.5256C38.4445 61.0408 40 59.4867 40 57.5696V49.512C40 47.5949 38.4445 46.0408 36.5256 46.0408Z" fill="#0072FF"/>
<path d="M12.736 55.3379V57.001H11V55.3379H12.736Z" fill="white"/>
<path d="M19.408 55.3425C19.1194 55.8626 18.6833 56.2874 18.1538 56.5641C17.558 56.8665 16.8955 57.0166 16.2264 57.001H13.6074V50.1221H16.2264C16.896 50.1057 17.5594 50.2525 18.1584 50.5499C18.6858 50.8215 19.1205 51.2417 19.408 51.7577C19.7061 52.3069 19.8562 52.9231 19.8437 53.5467C19.8556 54.1724 19.7056 54.7907 19.408 55.3425ZM17.6051 54.997C17.7925 54.8062 17.9377 54.5786 18.0314 54.3288C18.1251 54.0791 18.1652 53.8127 18.1492 53.5467C18.1653 53.281 18.1253 53.0149 18.0316 52.7655C17.9379 52.5161 17.7926 52.289 17.6051 52.0986C17.1851 51.7331 16.6365 51.5473 16.0789 51.5816H15.2881V55.5117H16.0812C16.6375 55.5451 17.1848 55.3602 17.6051 54.997Z" fill="white"/>
<path d="M25.8706 50.4674C26.398 50.7647 26.834 51.1989 27.1316 51.7234C27.4435 52.2773 27.6026 52.903 27.5927 53.5375C27.6033 54.1734 27.4442 54.8008 27.1316 55.3561C26.833 55.8826 26.3954 56.3184 25.8659 56.6166C25.327 56.922 24.7159 57.0799 24.0953 57.0742C23.4747 57.0796 22.8638 56.9217 22.3247 56.6166C21.7954 56.319 21.3584 55.883 21.0613 55.3561C20.7477 54.8012 20.5886 54.1735 20.6002 53.5375C20.5883 52.9028 20.7475 52.2765 21.0613 51.7234C21.3599 51.1988 21.7966 50.7647 22.3247 50.4674C22.8638 50.1624 23.4747 50.0045 24.0953 50.0099C24.7174 50.0041 25.3299 50.162 25.8706 50.4674ZM22.7812 52.0916C22.4411 52.4953 22.2681 53.0121 22.2971 53.5375C22.268 54.0608 22.4411 54.5754 22.7812 54.9764C22.9469 55.1551 23.15 55.2955 23.3762 55.388C23.6024 55.4805 23.8463 55.5227 24.0907 55.5117C24.3344 55.522 24.5774 55.4795 24.8027 55.3871C25.0281 55.2946 25.2305 55.1545 25.3956 54.9764C25.7373 54.5761 25.9122 54.0614 25.8844 53.5375C25.912 53.0143 25.7391 52.5002 25.4002 52.0985C25.2347 51.9197 25.0316 51.7792 24.8053 51.6867C24.5791 51.5942 24.3352 51.552 24.0907 51.5632C23.8469 51.5521 23.6036 51.5936 23.3775 51.6848C23.1514 51.7761 22.948 51.9148 22.7812 52.0916Z" fill="white"/>
<path d="M33.8906 50.7443C34.4753 51.2164 34.873 51.8784 35.0134 52.6133H33.2381C33.1184 52.3087 32.9086 52.0471 32.6364 51.8629C32.3495 51.6775 32.0127 51.5827 31.6704 51.5907C31.4444 51.5835 31.2197 51.6281 31.0138 51.7209C30.8079 51.8137 30.6263 51.9524 30.4831 52.126C30.1621 52.5335 29.9985 53.0414 30.022 53.5581C29.9985 54.0727 30.1622 54.5785 30.4831 54.9833C30.6275 55.1552 30.8095 55.2921 31.0152 55.3837C31.221 55.4753 31.4451 55.519 31.6704 55.5117C32.0129 55.5208 32.3499 55.4258 32.6364 55.2395C32.9071 55.0586 33.1168 54.8012 33.2381 54.5006H35.0134C34.8707 55.2333 34.4733 55.8932 33.8906 56.3651C33.2635 56.8401 32.4888 57.0829 31.7004 57.0513C31.0792 57.0643 30.466 56.911 29.9252 56.6075C29.419 56.3156 29.0084 55.8851 28.7425 55.3676C28.4567 54.8 28.3143 54.1719 28.3275 53.5375C28.3145 52.9031 28.4569 52.2751 28.7425 51.7074C29.0084 51.1899 29.419 50.7594 29.9252 50.4675C30.466 50.164 31.0792 50.0107 31.7004 50.0236C32.4928 50.0028 33.2677 50.2578 33.8906 50.7443Z" fill="white"/>
</svg>
