<svg width="14" height="7" viewBox="0 0 14 7" fill="none" xmlns="http://www.w3.org/2000/svg">
<path d="M13.4165 1.32249C13.417 1.45944 13.3868 1.59475 13.3281 1.71848C13.2694 1.84221 13.1837 1.95122 13.0773 2.03749L7.57735 6.46499C7.41332 6.59982 7.20758 6.67352 6.99526 6.67352C6.78294 6.67352 6.5772 6.59982 6.41318 6.46499L0.913179 1.88166C0.725981 1.72607 0.608258 1.50248 0.58591 1.26009C0.563562 1.0177 0.638419 0.776358 0.794012 0.589159C0.949606 0.401961 1.17319 0.284239 1.41558 0.26189C1.65797 0.239542 1.89931 0.314399 2.08651 0.469993L6.99985 4.56749L11.9132 0.607493C12.0477 0.4954 12.2116 0.424196 12.3853 0.402307C12.5591 0.380417 12.7355 0.408758 12.8936 0.483975C13.0518 0.559193 13.1851 0.67814 13.2777 0.826741C13.3704 0.975342 13.4186 1.14738 13.4165 1.32249Z" fill="#111729"/>
</svg>
