<svg width="47" height="61" viewBox="0 0 47 61" fill="none" xmlns="http://www.w3.org/2000/svg">
<g opacity="0.3">
<path opacity="0.3" d="M39.1076 12.7659C37.5768 12.7646 36.1092 12.2009 35.0267 11.1986C33.9443 10.1964 33.3355 8.83741 33.334 7.42V0H7.53484C5.53649 0 3.61996 0.735036 2.20691 2.04342C0.793865 3.35179 0 5.12634 0 6.97667V49.0337C0.00296754 50.8822 0.798151 52.6541 2.21088 53.9602C3.62361 55.2664 5.53843 56 7.53484 56H38.5028C40.5012 56 42.4177 55.265 43.8307 53.9566C45.2438 52.6482 46.0376 50.8737 46.0376 49.0233V12.7659H39.1076Z" fill="#E85A5A"/>
</g>
<path d="M46.0376 13.7872H39.1076C37.5768 13.7857 36.1091 13.177 35.0267 12.0945C33.9443 11.0121 33.3355 9.5444 33.334 8.0136V0L46.0376 13.7872Z" fill="#E85A5A"/>
<path d="M36.5256 46H9.47444C7.55556 46 6 47.5541 6 49.4711V57.5288C6 59.4459 7.55556 61 9.47444 61H36.5256C38.4445 61 40 59.4459 40 57.5288V49.4711C40 47.5541 38.4445 46 36.5256 46Z" fill="#E85A5A"/>
<path d="M14.1084 54.7437V56.7793H12V54.7437H14.1084Z" fill="white"/>
<path d="M15.4731 57H20.1107V55.7921H16.9381V54.0215H19.9312V52.896H16.9381V51.2079H20.1107V50H15.4731V57Z" fill="white"/>
<path d="M21.4487 57H22.9137V54.4387H24.044C24.0537 54.4387 24.065 54.4387 24.078 54.4387C24.0909 54.4387 24.1022 54.4387 24.1119 54.4387L25.4168 57H27.0759L25.6012 54.2204C26.0022 54.0619 26.3126 53.8048 26.5326 53.4491C26.7557 53.0901 26.8673 52.6858 26.8673 52.2363V52.2266C26.8673 51.7674 26.7686 51.3712 26.5714 51.0381C26.3773 50.705 26.0927 50.4495 25.7176 50.2717C25.3457 50.0906 24.8945 50 24.3642 50H21.4487V57ZM22.9137 53.3714V51.1448H24.1847C24.5534 51.1448 24.8428 51.2451 25.053 51.4456C25.2632 51.6461 25.3683 51.9161 25.3683 52.2557V52.2654C25.3683 52.6115 25.2648 52.8831 25.0579 53.0804C24.8541 53.2744 24.5695 53.3714 24.2041 53.3714H22.9137Z" fill="white"/>
<path d="M28.1422 57H29.6072V54.4387H30.7375C30.7472 54.4387 30.7585 54.4387 30.7715 54.4387C30.7844 54.4387 30.7957 54.4387 30.8054 54.4387L32.1103 57H33.7694L32.2947 54.2204C32.6957 54.0619 33.0062 53.8048 33.2261 53.4491C33.4492 53.0901 33.5608 52.6858 33.5608 52.2363V52.2266C33.5608 51.7674 33.4622 51.3712 33.2649 51.0381C33.0708 50.705 32.7862 50.4495 32.4111 50.2717C32.0392 50.0906 31.5881 50 31.0577 50H28.1422V57ZM29.6072 53.3714V51.1448H30.8782C31.2469 51.1448 31.5363 51.2451 31.7465 51.4456C31.9567 51.6461 32.0618 51.9161 32.0618 52.2557V52.2654C32.0618 52.6115 31.9583 52.8831 31.7514 53.0804C31.5476 53.2744 31.263 53.3714 30.8976 53.3714H29.6072Z" fill="white"/>
<path d="M21.0228 30.9322H24.4395V30.2488C24.4395 29.8276 24.504 29.4623 24.6329 29.1529C24.7619 28.8434 24.9854 28.5512 25.3034 28.2761C25.6214 27.9924 26.0641 27.6873 26.6314 27.3607C27.5426 26.8277 28.2302 26.2131 28.6944 25.5169C29.1585 24.812 29.3906 23.974 29.3906 23.0027V22.9769C29.3906 21.997 29.1328 21.1331 28.617 20.3853C28.1099 19.6375 27.3964 19.053 26.4767 18.6318C25.5656 18.2106 24.4954 18 23.2662 18C21.9511 18 20.8294 18.2278 19.901 18.6834C18.9813 19.1389 18.2722 19.775 17.7736 20.5916C17.2837 21.3996 17.0258 22.3279 17 23.3766V23.4024L20.4812 23.3895L20.507 23.3766C20.5328 22.8952 20.6531 22.4783 20.868 22.1259C21.0829 21.7649 21.3752 21.4855 21.7448 21.2878C22.1144 21.0901 22.5442 20.9913 23.0341 20.9913C23.5241 20.9913 23.9539 21.0858 24.3235 21.2749C24.6931 21.4555 24.9768 21.7047 25.1745 22.0228C25.3808 22.3322 25.4839 22.6889 25.4839 23.0929V23.1187C25.4839 23.5227 25.4194 23.8751 25.2905 24.176C25.1616 24.4768 24.9381 24.7648 24.62 25.0398C24.3106 25.3149 23.8765 25.62 23.3178 25.9553C22.7333 26.2991 22.2562 26.6687 21.8866 27.0641C21.5256 27.4595 21.272 27.9108 21.1259 28.4179C20.9884 28.9165 20.9454 29.5053 20.997 30.1843L21.0228 30.9322ZM22.8665 37.1468C23.5886 37.1468 24.1559 36.9534 24.5685 36.5666C24.9897 36.1798 25.2002 35.6555 25.2002 34.9936C25.2002 34.3145 24.9897 33.7859 24.5685 33.4077C24.1559 33.0209 23.5886 32.8275 22.8665 32.8275C22.1445 32.8275 21.5729 33.0209 21.1517 33.4077C20.7305 33.7859 20.5199 34.3145 20.5199 34.9936C20.5199 35.6555 20.7305 36.1798 21.1517 36.5666C21.5729 36.9534 22.1445 37.1468 22.8665 37.1468Z" fill="#E85A5A"/>
</svg>
