<svg width="20" height="17" viewBox="0 0 20 17" fill="none" xmlns="http://www.w3.org/2000/svg">
<path d="M0.674292 3.8375L0.624292 2.75C0.624292 2.08696 0.887684 1.45107 1.35652 0.982233C1.82537 0.513392 2.46125 0.25 3.12429 0.25H7.71429C8.37728 0.250142 9.01306 0.513627 9.48179 0.9825L10.5168 2.0175C10.9855 2.48637 11.6213 2.74986 12.2843 2.75H17.2618C17.6092 2.74996 17.9528 2.82233 18.2707 2.96249C18.5885 3.10265 18.8737 3.30751 19.108 3.56403C19.3423 3.82054 19.5205 4.12306 19.6314 4.4523C19.7422 4.78155 19.7832 5.13028 19.7518 5.47625L18.9555 14.2262C18.8991 14.8474 18.6125 15.425 18.152 15.8457C17.6916 16.2664 17.0905 16.4998 16.4668 16.5H3.53179C2.90809 16.4998 2.307 16.2664 1.84654 15.8457C1.38607 15.425 1.09949 14.8474 1.04304 14.2262L0.246792 5.47625C0.193524 4.89723 0.344784 4.31784 0.674292 3.83875V3.8375ZM2.73679 4C2.56315 3.99999 2.39141 4.03616 2.23252 4.1062C2.07363 4.17624 1.93107 4.27862 1.81394 4.4068C1.69681 4.53499 1.60767 4.68617 1.5522 4.85072C1.49674 5.01526 1.47616 5.18956 1.49179 5.3625L2.28804 14.1125C2.31611 14.4231 2.45925 14.7119 2.68936 14.9224C2.91948 15.1329 3.21995 15.2497 3.53179 15.25H16.4668C16.7786 15.2497 17.0791 15.1329 17.3092 14.9224C17.5393 14.7119 17.6825 14.4231 17.7105 14.1125L18.5068 5.3625C18.5224 5.18956 18.5018 5.01526 18.4464 4.85072C18.3909 4.68617 18.3018 4.53499 18.1846 4.4068C18.0675 4.27862 17.925 4.17624 17.7661 4.1062C17.6072 4.03616 17.4354 3.99999 17.2618 4H2.73679ZM8.59929 1.86625C8.4831 1.75002 8.34512 1.65784 8.19326 1.595C8.0414 1.53215 7.87864 1.49987 7.71429 1.5H3.12429C2.79684 1.49994 2.48245 1.62837 2.2487 1.85768C2.01495 2.08699 1.88051 2.39886 1.87429 2.72625L1.88179 2.9C2.14929 2.8025 2.43679 2.75 2.73679 2.75H9.48179L8.59804 1.86625H8.59929Z" fill="#495567"/>
</svg>
