<svg width="46" height="62" viewBox="0 0 46 62" fill="none" xmlns="http://www.w3.org/2000/svg">
<g opacity="0.3">
<path opacity="0.3" d="M39.0757 12.8037C37.5459 12.8031 36.079 12.2397 34.9973 11.2376C33.9156 10.2354 33.3075 8.87634 33.3068 7.45905V0.0407715H7.52868C6.53977 0.0407714 5.56056 0.221261 4.64696 0.571953C3.73336 0.922644 2.90322 1.43666 2.20409 2.08462C1.50495 2.73259 0.9505 3.50182 0.572315 4.34838C0.19413 5.19493 -0.000366968 6.10223 5.19783e-07 7.01843V49.0631C-0.000366968 49.9793 0.19413 50.8866 0.572315 51.7331C0.9505 52.5797 1.50495 53.3489 2.20409 53.9969C2.90322 54.6449 3.73336 55.1589 4.64696 55.5096C5.56056 55.8602 6.53977 56.0408 7.52868 56.0408H38.4713C39.4602 56.0408 40.4394 55.8602 41.353 55.5096C42.2666 55.1589 43.0967 54.6449 43.7958 53.9969C44.495 53.3489 45.0495 52.5797 45.4277 51.7331C45.8059 50.8866 46.0004 49.9793 46 49.0631V12.8063L39.0757 12.8037Z" fill="#00C650"/>
</g>
<path d="M45.9997 13.8165H39.0755C37.5457 13.8158 36.0788 13.2078 34.9971 12.1261C33.9154 11.0444 33.3074 9.57748 33.3066 8.04772V0.0407715L45.9997 13.8165Z" fill="#00C650"/>
<path d="M36.5256 46.0408H9.47444C7.55556 46.0408 6 47.5949 6 49.512V57.5696C6 59.4867 7.55556 61.0408 9.47444 61.0408H36.5256C38.4445 61.0408 40 59.4867 40 57.5696V49.512C40 47.5949 38.4445 46.0408 36.5256 46.0408Z" fill="#00C650"/>
<path d="M14.9522 55.2935V56.8684H13.3232V55.2935H14.9522Z" fill="white"/>
<path d="M19.7873 50.3633V54.8069C19.7873 55.4891 19.6019 56.0134 19.2313 56.3797C19.0244 56.5705 18.7812 56.7177 18.5162 56.8124C18.2512 56.9072 17.9698 56.9477 17.6888 56.9314C17.381 56.9479 17.0731 56.9032 16.7827 56.8C16.4923 56.6968 16.2253 56.537 15.997 56.33C15.5802 55.9276 15.3711 55.3507 15.3696 54.5992H16.9251C16.9251 55.2071 17.1566 55.51 17.6152 55.51C18.0154 55.51 18.2145 55.2764 18.2145 54.8112V50.3676L19.7873 50.3633Z" fill="white"/>
<path d="M22.3965 54.5862V56.8686H20.8237V50.3633H23.3722C24.1438 50.3633 24.7323 50.5544 25.1375 50.9366C25.3426 51.1376 25.5028 51.3797 25.6076 51.6471C25.7124 51.9144 25.7594 52.2009 25.7455 52.4878C25.7514 52.8658 25.6581 53.2387 25.475 53.5695C25.2867 53.892 25.0065 54.151 24.6703 54.3136C24.2652 54.5059 23.8204 54.5993 23.3722 54.5862H22.3965ZM24.1445 52.4878C24.1445 51.9108 23.8287 51.6224 23.197 51.6224H22.3965V53.3163H23.197C23.8287 53.3221 24.1445 53.0459 24.1445 52.4878Z" fill="white"/>
<path d="M31.5802 50.8868C32.104 51.2807 32.4564 51.8608 32.5646 52.5072H30.8988C30.786 52.2808 30.6082 52.0932 30.3882 51.9685C30.1404 51.8213 29.8564 51.7464 29.5682 51.7521C29.3446 51.743 29.1216 51.7833 28.9152 51.87C28.7088 51.9567 28.5241 52.0879 28.374 52.254C28.0568 52.6325 27.8952 53.1174 27.9219 53.6105C27.9219 54.2292 28.0798 54.7045 28.3957 55.0362C28.5733 55.2084 28.7849 55.3416 29.017 55.4273C29.2491 55.513 29.4966 55.5493 29.7435 55.5338C30.0965 55.5402 30.442 55.4316 30.7278 55.2244C31.0197 55.0064 31.2306 54.6973 31.3271 54.3461H29.3389V53.2146H32.6424V54.7701C32.5162 55.1573 32.3164 55.5165 32.054 55.828C31.7698 56.1636 31.4162 56.4338 31.0177 56.6198C30.5671 56.828 30.0753 56.9315 29.5791 56.9227C28.9754 56.9385 28.3784 56.7944 27.8484 56.5051C27.3635 56.2324 26.9688 55.8242 26.7126 55.3304C26.4373 54.7958 26.2997 54.2009 26.3123 53.5997C26.3015 53.0021 26.439 52.4112 26.7126 51.8798C26.9683 51.3871 27.3613 50.9791 27.844 50.7051C28.3663 50.418 28.9551 50.2739 29.5509 50.2875C30.2752 50.2559 30.9893 50.4668 31.5802 50.8868Z" fill="white"/>
<path d="M29.1801 39.5242H16.8228C15.6131 39.5227 14.4533 39.0414 13.5979 38.186C12.7425 37.3306 12.2612 36.1709 12.2598 34.9611V22.6038C12.2612 21.3941 12.7425 20.2343 13.5979 19.3789C14.4533 18.5235 15.6131 18.0423 16.8228 18.0408H29.1801C30.3896 18.0423 31.549 18.5236 32.404 19.3791C33.259 20.2346 33.7396 21.3943 33.7403 22.6038V34.9611C33.7396 36.1706 33.259 37.3304 32.404 38.1859C31.549 39.0414 30.3896 39.5227 29.1801 39.5242ZM16.8228 20.0579C16.1478 20.0586 15.5006 20.3271 15.0234 20.8044C14.5461 21.2817 14.2776 21.9288 14.2769 22.6038V34.9611C14.2776 35.6361 14.5461 36.2832 15.0234 36.7605C15.5006 37.2378 16.1478 37.5063 16.8228 37.507H29.1801C29.8548 37.5063 30.5017 37.2377 30.9785 36.7604C31.4554 36.283 31.7232 35.6359 31.7232 34.9611V22.6038C31.7232 21.9291 31.4554 21.2819 30.9785 20.8046C30.5017 20.3272 29.8548 20.0586 29.1801 20.0579H16.8228Z" fill="#00C650"/>
<path d="M32.7329 32.6109V34.961C32.7322 35.9031 32.3576 36.8064 31.6914 37.4726C31.0253 38.1387 30.122 38.5133 29.1799 38.5141H16.8226C15.8802 38.5141 14.9765 38.1397 14.3102 37.4734C13.6439 36.8071 13.2695 35.9033 13.2695 34.961V31.0163C15.2475 30.591 18.2606 30.4567 21.9171 31.9171L24.1833 29.7573L25.7275 33.6741C25.7275 33.6741 26.1416 32.2333 27.4789 32.4375C28.8162 32.6417 30.9816 33.3663 31.9076 32.748C32.1571 32.6041 32.4503 32.5554 32.7329 32.6109Z" fill="#00C650"/>
<path d="M28.4054 25.1272C29.164 25.1272 29.7791 24.5122 29.7791 23.7536C29.7791 22.9949 29.164 22.3799 28.4054 22.3799C27.6467 22.3799 27.0317 22.9949 27.0317 23.7536C27.0317 24.5122 27.6467 25.1272 28.4054 25.1272Z" fill="#00C650"/>
</svg>
