<svg width="46" height="62" viewBox="0 0 46 62" fill="none" xmlns="http://www.w3.org/2000/svg">
<g opacity="0.3">
<path opacity="0.3" d="M39.0733 12.8067C37.5438 12.8053 36.0774 12.2417 34.9959 11.2394C33.9145 10.2371 33.3062 8.87818 33.3047 7.46077V0.0407715H7.52818C5.53158 0.0407715 3.61677 0.775808 2.20496 2.08419C0.793151 3.39257 0 5.16711 0 7.01744V49.0745C0.00296494 50.923 0.797417 52.6949 2.2089 54.001C3.62039 55.3072 5.53352 56.0408 7.52818 56.0408H38.4718C40.467 56.0408 42.3805 55.3068 43.7921 54.0001C45.2037 52.6934 45.9978 50.9209 46 49.0719V12.8067H39.0733Z" fill="#FF3E4C"/>
</g>
<path d="M45.9999 13.8159H39.0732C37.5438 13.8144 36.0774 13.2061 34.9959 12.1247C33.9144 11.0432 33.3062 9.57678 33.3047 8.04733V0.0407715L45.9999 13.8159Z" fill="#FF3E4C"/>
<path d="M36.5256 46.0408H9.47442C7.55555 46.0408 6 47.5948 6 49.5119V57.5696C6 59.4867 7.55555 61.0408 9.47442 61.0408H36.5256C38.4445 61.0408 40 59.4867 40 57.5696V49.5119C40 47.5948 38.4445 46.0408 36.5256 46.0408Z" fill="#FF3E4C"/>
<path d="M13.7491 55.2937V56.8665H12.1201V55.2937H13.7491Z" fill="white"/>
<path d="M21.8837 50.4065V56.8664H20.3109V52.8338L18.9112 56.8729H17.5504L16.1421 52.8252V56.8729H14.5649V50.413H16.4882L18.2449 54.9128L19.9756 50.413L21.8837 50.4065Z" fill="white"/>
<path d="M24.5425 54.584V56.8664H22.9697V50.3611H25.5182C26.2905 50.3611 26.8812 50.5536 27.2857 50.9365C27.4903 51.1374 27.65 51.3792 27.7544 51.6462C27.8588 51.9132 27.9055 52.1992 27.8915 52.4855C27.8992 52.8638 27.8059 53.2372 27.621 53.5672C27.4322 53.8899 27.1522 54.1495 26.8163 54.3136C26.4107 54.5041 25.9661 54.5967 25.5182 54.584H24.5425ZM26.2906 52.4855C26.2906 51.9173 25.9747 51.6324 25.343 51.631H24.5425V53.3249H25.343C25.9747 53.3249 26.2906 53.0451 26.2906 52.4855Z" fill="white"/>
<path d="M32.0691 50.3113C32.3748 50.4501 32.6329 50.6758 32.8112 50.9604C32.9812 51.239 33.0689 51.56 33.0643 51.8863C33.0814 52.2548 32.9654 52.6172 32.7376 52.9074C32.53 53.1588 32.2418 53.3308 31.922 53.3942V53.4418C32.7643 53.71 33.1847 54.2343 33.1833 55.0146C33.1894 55.3642 33.1004 55.7089 32.9258 56.0119C32.7486 56.3084 32.4873 56.5456 32.1751 56.6934C31.8055 56.8647 31.4012 56.9484 30.9939 56.9378C30.2454 56.9378 29.6505 56.7539 29.2134 56.3862C28.7764 56.0184 28.5363 55.4559 28.4995 54.7009H30.0355C30.0337 54.9491 30.1186 55.1901 30.2757 55.3823C30.3588 55.4692 30.46 55.5365 30.5723 55.5796C30.6845 55.6226 30.8048 55.6402 30.9247 55.6311C31.0233 55.6365 31.122 55.6211 31.2144 55.5861C31.3068 55.5511 31.3909 55.4972 31.4612 55.4278C31.5279 55.3584 31.5798 55.2762 31.614 55.1863C31.6482 55.0963 31.664 55.0004 31.6602 54.9042C31.6602 54.3692 31.2737 54.1023 30.5007 54.1038H30.2064V52.8252H30.492C31.1843 52.8353 31.5304 52.5865 31.5304 52.0788C31.5368 51.986 31.5242 51.8928 31.4933 51.805C31.4625 51.7172 31.414 51.6367 31.3509 51.5683C31.287 51.507 31.2112 51.4595 31.1282 51.4286C31.0453 51.3977 30.9568 51.3842 30.8684 51.3887C30.7705 51.3829 30.6725 51.3993 30.5818 51.4367C30.4911 51.4742 30.4101 51.5318 30.3449 51.6051C30.2089 51.7773 30.1329 51.9892 30.1286 52.2086H28.5904C28.5867 51.9146 28.6422 51.6229 28.7537 51.3508C28.8652 51.0787 29.0304 50.8319 29.2394 50.625C29.6375 50.2573 30.1956 50.0734 30.9139 50.0734C31.312 50.0648 31.7068 50.1462 32.0691 50.3113Z" fill="white"/>
<path d="M33.6346 36.946H30.5713V24.5641C30.5713 24.1494 30.4065 23.7516 30.1132 23.4583C29.8199 23.1651 29.4222 23.0003 29.0074 23.0003H21.1743C20.969 23.0003 20.7656 23.0407 20.5759 23.1193C20.3861 23.1979 20.2137 23.3131 20.0685 23.4583C19.9233 23.6035 19.8081 23.7759 19.7295 23.9657C19.651 24.1554 19.6105 24.3588 19.6105 24.5641V36.946H16.5332V23.5178C16.5332 23.0466 16.6261 22.58 16.8065 22.1447C16.9869 21.7094 17.2513 21.3139 17.5846 20.9809C17.918 20.6478 18.3137 20.3837 18.7491 20.2036C19.1846 20.0235 19.6512 19.931 20.1225 19.9314H30.0537C31.0049 19.9314 31.9171 20.3093 32.5897 20.9818C33.2623 21.6544 33.6402 22.5667 33.6402 23.5178L33.6346 36.946Z" fill="#FF3E4C"/>
<path d="M30.0033 40.5771C32.0087 40.5771 33.6345 38.9514 33.6345 36.9459C33.6345 34.9404 32.0087 33.3147 30.0033 33.3147C27.9978 33.3147 26.3721 34.9404 26.3721 36.9459C26.3721 38.9514 27.9978 40.5771 30.0033 40.5771Z" fill="#FF3E4C"/>
<path d="M15.9964 40.5771C18.0019 40.5771 19.6277 38.9514 19.6277 36.9459C19.6277 34.9404 18.0019 33.3147 15.9964 33.3147C13.991 33.3147 12.3652 34.9404 12.3652 36.9459C12.3652 38.9514 13.991 40.5771 15.9964 40.5771Z" fill="#FF3E4C"/>
</svg>
