<svg width="46" height="61" viewBox="0 0 46 61" fill="none" xmlns="http://www.w3.org/2000/svg">
<g opacity="0.3">
<path opacity="0.3" d="M39.0733 12.8067C37.5438 12.8053 36.0774 12.2417 34.9959 11.2394C33.9145 10.2371 33.3063 8.87818 33.3048 7.46077V0.0407715H7.52817C5.53205 0.0407714 3.61766 0.775459 2.20593 2.08328C0.794205 3.39109 0.000741775 5.16497 0 7.01485V49.0719C0.00222424 50.9209 0.796347 52.6934 2.20792 54.0001C3.61948 55.3068 5.53302 56.0408 7.52817 56.0408H38.469C39.4579 56.0411 40.4371 55.8609 41.3508 55.5104C42.2645 55.16 43.0947 54.6461 43.7941 53.9983C44.4934 53.3504 45.0482 52.5812 45.4267 51.7346C45.8052 50.8879 46 49.9805 46 49.0641V12.8067H39.0733Z" fill="#A140FF"/>
</g>
<path d="M45.9998 13.8158H39.0731C37.5437 13.8143 36.0773 13.2061 34.9958 12.1246C33.9144 11.0431 33.3062 9.57673 33.3047 8.04729V0.0407715L45.9998 13.8158Z" fill="#A140FF"/>
<path d="M36.5256 46H9.47438C7.55551 46 6 47.5541 6 49.4712V57.5288C6 59.4459 7.55551 61 9.47438 61H36.5256C38.4444 61 40 59.4459 40 57.5288V49.4712C40 47.5541 38.4444 46 36.5256 46Z" fill="#A140FF"/>
<path d="M13.7345 55.2531V56.8258H12.1055V55.2531H13.7345Z" fill="white"/>
<path d="M21.8687 50.368V56.8258H20.2959V52.7932L18.8962 56.8323H17.5354L16.127 52.7846V56.8323H14.5542V50.3745H16.4775L18.2341 54.8722L19.9649 50.3745L21.8687 50.368Z" fill="white"/>
<path d="M24.5274 54.5456V56.8258H22.9546V50.3204H25.5052C26.2776 50.3204 26.8682 50.513 27.2727 50.8959C27.4774 51.0971 27.6373 51.3393 27.7417 51.6066C27.8461 51.874 27.8927 52.1604 27.8785 52.4471C27.886 52.8252 27.7926 53.1986 27.6081 53.5288C27.4191 53.8508 27.1391 54.1097 26.8033 54.273C26.3983 54.4652 25.9534 54.5586 25.5052 54.5456H24.5274ZM26.2754 52.4471C26.2754 51.8702 25.9595 51.5817 25.3278 51.5817H24.5274V53.2756H25.3278C25.9595 53.2814 26.2754 53.0052 26.2754 52.4471Z" fill="white"/>
<path d="M28.5127 55.6296V54.3078L31.4852 50.2319H33.177V54.2537H33.9602V55.6231H33.177V56.8195H31.5848V55.6231L28.5127 55.6296ZM31.7145 52.06L30.1136 54.2602H31.7145V52.06Z" fill="white"/>
<path d="M33.4134 34.4229V21.0759C33.4127 21.0111 33.4062 20.9465 33.3939 20.8828C33.3909 20.8638 33.3862 20.8451 33.3799 20.8269C33.3698 20.7832 33.3567 20.7401 33.3407 20.6982C33.3335 20.679 33.3251 20.6604 33.3156 20.6423C33.2984 20.6014 33.2779 20.5621 33.254 20.5248L33.226 20.48C33.1908 20.4293 33.1515 20.3816 33.1085 20.3373L33.0889 20.3205C33.0508 20.2847 33.0107 20.251 32.9687 20.2198L32.9183 20.1891L32.8064 20.1275L32.7477 20.1023C32.7039 20.0854 32.659 20.0714 32.6134 20.0604H32.5686C32.5051 20.0469 32.4404 20.0404 32.3756 20.0408H13.5315C13.2725 20.0645 13.0316 20.184 12.8562 20.376C12.6808 20.568 12.5834 20.8186 12.5831 21.0787C12.5831 21.0955 12.5831 21.1094 12.5831 21.1262V34.4704C12.5763 34.6422 12.6309 34.8108 12.737 34.946C12.8287 35.101 12.9593 35.2295 13.1157 35.3188C13.2722 35.408 13.4492 35.455 13.6293 35.4551H32.3728C32.6469 35.4537 32.9095 35.3448 33.1041 35.1517C33.2987 34.9587 33.4098 34.697 33.4134 34.4229ZM13.7077 22.553V20.5276H15.3554V22.553H13.7077ZM16.4884 22.553V20.5276H18.1362V22.553H16.4884ZM19.2691 22.553V20.5276H20.9169V22.553H19.2691ZM22.0499 22.553V20.5276H23.6976V22.553H22.0499ZM24.8306 22.553V20.5276H26.4784V22.553H24.8306ZM27.6114 22.553V20.5276H29.2592V22.553H27.6114ZM30.3921 22.553V20.5276H32.0399V22.553H30.3921ZM13.3272 32.3751V23.1013H32.6945V32.3751H13.3272ZM13.7049 34.946V32.9206H15.3526V34.946H13.7049ZM16.4856 34.946V32.9206H18.1334V34.946H16.4856ZM19.2664 34.946V32.9206H20.9141V34.946H19.2664ZM22.0471 34.946V32.9206H23.6948V34.946H22.0471ZM24.8278 34.946V32.9206H26.4756V34.946H24.8278ZM27.6086 34.946V32.9206H29.2564V34.946H27.6086ZM30.3893 34.946V32.9206H32.0371V34.946H30.3893Z" fill="#A140FF"/>
<path d="M25.2397 27.0512L22.5624 25.5041C22.4239 25.4248 22.2671 25.3832 22.1075 25.3835C21.9479 25.3839 21.7911 25.426 21.653 25.5059C21.5148 25.5858 21.4 25.7005 21.32 25.8386C21.24 25.9767 21.1977 26.1334 21.1973 26.293V29.3871C21.1977 29.5467 21.24 29.7034 21.32 29.8415C21.4 29.9796 21.5148 30.0944 21.653 30.1742C21.7911 30.2541 21.9479 30.2963 22.1075 30.2966C22.2671 30.2969 22.4239 30.2553 22.5624 30.176L25.2397 28.629C25.3779 28.5488 25.4926 28.4337 25.5724 28.2953C25.6521 28.1568 25.6941 27.9998 25.6941 27.8401C25.6941 27.6803 25.6521 27.5233 25.5724 27.3848C25.4926 27.2464 25.3779 27.1313 25.2397 27.0512Z" fill="#A140FF"/>
</svg>
