<svg width="25" height="29" viewBox="0 0 25 29" fill="none" xmlns="http://www.w3.org/2000/svg">
<mask id="mask0_91_1430" style="mask-type:alpha" maskUnits="userSpaceOnUse" x="0" y="0" width="25" height="24">
<path fill-rule="evenodd" clip-rule="evenodd" d="M0 0H24.9493V23.3996H0V0Z" fill="white"/>
</mask>
<g mask="url(#mask0_91_1430)">
<path d="M3.00639 14.2747L2.14943 13.7594L2.14912 13.7599L3.00639 14.2747ZM2.01904 17.4958H1.01904V17.54L1.02294 17.584L2.01904 17.4958ZM22.9301 17.4081L23.9263 17.4948L23.9302 17.4502L23.9301 17.4054L22.9301 17.4081ZM21.9387 14.2747L22.7959 13.7599L22.7956 13.7594L21.9387 14.2747ZM12.4725 1.02325C7.25692 1.02325 3.47258 5.11457 3.47258 9.03046H5.47258C5.47258 6.31818 8.25977 3.02325 12.4725 3.02325V1.02325ZM3.47258 9.03046C3.47258 10.3356 3.29217 11.2496 3.05159 11.9507C2.80896 12.6577 2.49355 13.1872 2.14943 13.7594L3.86335 14.7901C4.20714 14.2185 4.62482 13.5279 4.94331 12.5998C5.26385 11.6658 5.47258 10.5295 5.47258 9.03046H3.47258ZM2.14912 13.7599C1.87991 14.2081 1.58123 14.6999 1.36512 15.2992C1.14279 15.9159 1.01904 16.6082 1.01904 17.4958H3.01904C3.01904 16.8065 3.11313 16.3477 3.24656 15.9776C3.38621 15.5903 3.5812 15.2599 3.86366 14.7896L2.14912 13.7599ZM1.02294 17.584C1.08788 18.3173 1.26546 19.0598 1.71371 19.7308C2.16683 20.4091 2.83601 20.9245 3.72937 21.3087C5.45319 22.05 8.197 22.3764 12.4725 22.3764V20.3764C8.19914 20.3764 5.82882 20.0344 4.51945 19.4714C3.89621 19.2034 3.56903 18.9076 3.37677 18.6198C3.17964 18.3247 3.06284 17.9461 3.01515 17.4076L1.02294 17.584ZM12.4725 22.3764C16.7282 22.3764 19.4752 22.0348 21.2083 21.2721C22.1053 20.8774 22.7761 20.3512 23.2306 19.666C23.6805 18.9876 23.8616 18.2381 23.9263 17.4948L21.9338 17.3214C21.8866 17.8642 21.7673 18.2538 21.5638 18.5606C21.3648 18.8606 21.0294 19.1657 20.4027 19.4415C19.0884 20.0199 16.7186 20.3764 12.4725 20.3764V22.3764ZM23.9301 17.4054C23.9278 16.5553 23.8007 15.8839 23.5777 15.2806C23.3617 14.6965 23.0647 14.2074 22.7959 13.7599L21.0814 14.7896C21.3643 15.2606 21.561 15.5936 21.7018 15.9743C21.8355 16.3358 21.9283 16.7717 21.9301 17.4108L23.9301 17.4054ZM22.7956 13.7594C22.4515 13.1872 22.1361 12.6577 21.8935 11.9507C21.6529 11.2496 21.4725 10.3356 21.4725 9.03046H19.4725C19.4725 10.5295 19.6812 11.6658 20.0018 12.5998C20.3202 13.5279 20.7379 14.2185 21.0817 14.7901L22.7956 13.7594ZM21.4725 9.03046C21.4725 5.11457 17.6881 1.02325 12.4725 1.02325V3.02325C16.6853 3.02325 19.4725 6.31818 19.4725 9.03046H21.4725Z" fill="#111729"/>
</g>
<path fill-rule="evenodd" clip-rule="evenodd" d="M12.4069 29H12.4043C10.8922 28.9987 9.46109 28.3323 8.37527 27.1224C8.00165 26.7083 8.03537 26.0677 8.45081 25.6954C8.86625 25.3204 9.5056 25.3541 9.87923 25.7709C10.5779 26.5492 11.4749 26.9768 12.4056 26.9768H12.4069C13.3417 26.9768 14.2427 26.5492 14.9428 25.7696C15.3177 25.3555 15.9571 25.3217 16.3712 25.6954C16.7866 26.069 16.8203 26.7097 16.4467 27.1238C15.3569 28.3337 13.923 29 12.4069 29Z" fill="#111729"/>
</svg>
