<svg width="46" height="64" viewBox="0 0 46 64" fill="none" xmlns="http://www.w3.org/2000/svg">
<g opacity="0.3">
<path opacity="0.3" d="M39.0733 12.8093C37.5438 12.8079 36.0774 12.2442 34.9959 11.242C33.9145 10.2397 33.3062 8.88074 33.3047 7.46333V0.0407715H7.52818C5.53158 0.0407715 3.61677 0.775832 2.20496 2.08421C0.793151 3.39259 0 5.16709 0 7.01742V49.0744C0.00296494 50.923 0.797417 52.6949 2.2089 54.001C3.62039 55.3071 5.53352 56.0408 7.52818 56.0408H38.4718C40.4665 56.0408 42.3796 55.3071 43.7911 54.001C45.2026 52.6949 45.997 50.923 46 49.0744V12.8093H39.0733Z" fill="#FF3E4C"/>
</g>
<path d="M45.9999 13.7778H39.0732C37.5437 13.7763 36.0774 13.1681 34.9959 12.0866C33.9144 11.0051 33.3062 9.53872 33.3047 8.00928V0L45.9999 13.7778Z" fill="#FF3E4C"/>
<path d="M36.5357 42.1979H7.65405C7.37582 42.1979 7.10898 42.0873 6.91224 41.8906C6.7155 41.6939 6.60498 41.427 6.60498 41.1488C6.60572 40.8711 6.71657 40.6049 6.91323 40.4088C7.10989 40.2127 7.37631 40.1025 7.65405 40.1025H36.5357C36.8132 40.1025 37.0793 40.2127 37.2755 40.4089C37.4717 40.6051 37.582 40.8713 37.582 41.1488C37.5823 41.2864 37.5555 41.4228 37.5031 41.5501C37.4507 41.6773 37.3737 41.7929 37.2765 41.8904C37.1793 41.9879 37.0639 42.0652 36.9367 42.118C36.8096 42.1707 36.6733 42.1979 36.5357 42.1979Z" fill="#FF3E4C"/>
<path d="M36.5357 30.381H7.65405C7.37631 30.381 7.10989 30.2708 6.91323 30.0747C6.71657 29.8785 6.60572 29.6125 6.60498 29.3347C6.60498 29.0565 6.7155 28.7896 6.91224 28.5929C7.10898 28.3961 7.37582 28.2856 7.65405 28.2856H36.5357C36.6733 28.2856 36.8096 28.3128 36.9367 28.3656C37.0639 28.4183 37.1793 28.4956 37.2765 28.5931C37.3737 28.6905 37.4507 28.8062 37.5031 28.9335C37.5555 29.0607 37.5823 29.1971 37.582 29.3347C37.582 29.6122 37.4717 29.8783 37.2755 30.0745C37.0793 30.2707 36.8132 30.381 36.5357 30.381Z" fill="#FF3E4C"/>
<path d="M36.5357 36.2894H7.65405C7.37582 36.2894 7.10898 36.1789 6.91224 35.9822C6.7155 35.7854 6.60498 35.5186 6.60498 35.2404C6.60572 34.9626 6.71657 34.6965 6.91323 34.5003C7.10989 34.3042 7.37631 34.1941 7.65405 34.1941H36.5357C36.8132 34.1941 37.0793 34.3043 37.2755 34.5005C37.4717 34.6968 37.582 34.9629 37.582 35.2404C37.5823 35.378 37.5555 35.5144 37.5031 35.6416C37.4507 35.7689 37.3737 35.8846 37.2765 35.982C37.1793 36.0795 37.0639 36.1568 36.9367 36.2095C36.8096 36.2623 36.6733 36.2894 36.5357 36.2894Z" fill="#FF3E4C"/>
<path d="M25.1442 24.4725H7.65405C7.37631 24.4725 7.10989 24.3624 6.91323 24.1663C6.71657 23.9702 6.60572 23.704 6.60498 23.4263C6.60498 23.148 6.7155 22.8812 6.91224 22.6845C7.10898 22.4877 7.37582 22.3772 7.65405 22.3772H25.1442C25.4219 22.3779 25.6881 22.4888 25.8842 22.6854C26.0803 22.8821 26.1905 23.1485 26.1905 23.4263C26.1897 23.7035 26.0793 23.9692 25.8832 24.1653C25.6871 24.3613 25.4214 24.4718 25.1442 24.4725V24.4725Z" fill="#FF3E4C"/>
<path d="M25.1442 18.5643H7.65405C7.37631 18.5643 7.10989 18.4542 6.91323 18.258C6.71657 18.0619 6.60572 17.7958 6.60498 17.5181C6.60498 17.2398 6.7155 16.9729 6.91224 16.7762C7.10898 16.5795 7.37582 16.469 7.65405 16.469H25.1442C25.4219 16.4697 25.6881 16.5806 25.8842 16.7772C26.0803 16.9739 26.1905 17.2403 26.1905 17.5181C26.1897 17.7953 26.0793 18.061 25.8832 18.2571C25.6871 18.4531 25.4214 18.5636 25.1442 18.5643Z" fill="#FF3E4C"/>
<path d="M36.0236 16.469H31.0776C30.2155 16.469 29.5166 17.1679 29.5166 18.03V22.976C29.5166 23.8382 30.2155 24.5371 31.0776 24.5371H36.0236C36.8858 24.5371 37.5847 23.8382 37.5847 22.976V18.03C37.5847 17.1679 36.8858 16.469 36.0236 16.469Z" fill="#FF3E4C"/>
<path d="M36.5256 48.0408H9.47442C7.55555 48.0408 6 49.5949 6 51.512V59.5696C6 61.4867 7.55555 63.0408 9.47442 63.0408H36.5256C38.4445 63.0408 40 61.4867 40 59.5696V51.512C40 49.5949 38.4445 48.0408 36.5256 48.0408Z" fill="#FF3E4C"/>
<path d="M14.6824 57.1034V58.7173H13V57.1034H14.6824Z" fill="white"/>
<path d="M17.1567 56.3753V58.7172H15.5303V52.042H18.1657C18.9644 52.042 19.5752 52.2395 19.9935 52.6325C20.2052 52.8389 20.3705 53.0874 20.4785 53.3617C20.5864 53.6361 20.6346 53.93 20.6199 54.2241C20.6281 54.6122 20.5315 54.9955 20.3403 55.3341C20.145 55.6652 19.8555 55.9317 19.5081 56.1C19.089 56.2965 18.629 56.3916 18.1657 56.3775L17.1567 56.3753ZM18.9644 54.2241C18.9644 53.6322 18.6378 53.3362 17.9845 53.3362H17.1567V55.0744H17.9845C18.6378 55.0803 18.9644 54.7969 18.9644 54.2241Z" fill="white"/>
<path d="M27.0475 57.1078C26.7674 57.6126 26.3443 58.0248 25.8305 58.2933C25.2523 58.587 24.6094 58.7327 23.9601 58.7173H21.4209V52.042H23.9601C24.6099 52.0258 25.2538 52.1683 25.8349 52.4571C26.3473 52.7199 26.7694 53.1279 27.0475 53.6292C27.3386 54.1615 27.4851 54.7598 27.4726 55.3652C27.4847 55.9728 27.3383 56.573 27.0475 57.1078V57.1078ZM25.298 56.7726C25.4799 56.5874 25.6208 56.3666 25.7117 56.1242C25.8026 55.8819 25.8415 55.6234 25.826 55.3652C25.8416 55.1074 25.8027 54.8492 25.7118 54.6072C25.6209 54.3652 25.4799 54.1447 25.298 53.96C24.8911 53.6057 24.3595 53.4254 23.8192 53.4583H23.0474V57.2721H23.8192C24.3591 57.3047 24.8902 57.1253 25.298 56.7726V56.7726Z" fill="white"/>
<path d="M32.7817 52.042V53.3273H30.0232V54.7902H32.1531V56.0178H30.0232V58.7172H28.3945V52.042H32.7817Z" fill="white"/>
</svg>
