<svg width="46" height="63" viewBox="0 0 46 63" fill="none" xmlns="http://www.w3.org/2000/svg">
<path d="M36.5256 47.0408H9.47442C7.55555 47.0408 6 48.5949 6 50.512V58.5696C6 60.4867 7.55555 62.0408 9.47442 62.0408H36.5256C38.4445 62.0408 40 60.4867 40 58.5696V50.512C40 48.5949 38.4445 47.0408 36.5256 47.0408Z" fill="#005FAD"/>
<path d="M13.8356 56.2937V57.8665H12.2065V56.2937H13.8356Z" fill="white"/>
<path d="M16.2288 55.5862V57.8664H14.6538V51.3611H17.2023C17.9768 51.3611 18.566 51.5529 18.9698 51.9365C19.1748 52.1376 19.3349 52.3798 19.4397 52.6471C19.5445 52.9144 19.5915 53.2009 19.5777 53.4877C19.5845 53.8661 19.4904 54.2394 19.3051 54.5694C19.1173 54.8923 18.8369 55.1515 18.5003 55.3136C18.0956 55.5067 17.6505 55.6001 17.2023 55.5862H16.2288ZM17.9768 53.4877C17.9768 52.9108 17.6609 52.6223 17.0292 52.6223H16.2288V54.3163H17.0292C17.6609 54.322 17.9768 54.0459 17.9768 53.4877Z" fill="white"/>
<path d="M26.1288 57.8664H24.556L21.9209 53.8728V57.8664H20.3481V51.3611H21.9209L24.5538 55.3915V51.3611H26.1266L26.1288 57.8664Z" fill="white"/>
<path d="M32.2741 51.8868C32.7991 52.2796 33.1518 52.8603 33.2585 53.5072H31.5927C31.4834 53.2755 31.308 53.0813 31.0886 52.949C30.8407 52.8021 30.5568 52.7271 30.2687 52.7327C30.0449 52.7234 29.8217 52.7634 29.615 52.8497C29.4083 52.9361 29.2231 53.0667 29.0723 53.2324C28.7562 53.6123 28.5955 54.0976 28.6223 54.5911C28.6223 55.2098 28.7803 55.685 29.0961 56.0167C29.2736 56.1891 29.4853 56.3224 29.7174 56.4081C29.9495 56.4938 30.197 56.53 30.4439 56.5143C30.7969 56.5204 31.1423 56.4119 31.4283 56.205C31.7196 55.9869 31.9297 55.6777 32.0254 55.3266H30.0394V54.1952H33.3429V55.7809C33.2149 56.1679 33.0145 56.5269 32.7523 56.8388C32.4691 57.1746 32.1162 57.4448 31.7181 57.6306C31.2669 57.839 30.7743 57.9425 30.2773 57.9335C29.6735 57.9488 29.0764 57.804 28.5466 57.5138C28.0618 57.242 27.6671 56.8344 27.4108 56.3413C27.1366 55.8101 26.9991 55.219 27.0106 54.6214C26.9976 54.0201 27.1352 53.4251 27.4108 52.8906C27.6667 52.3986 28.0597 51.9913 28.5423 51.7181C29.0644 51.4305 29.6533 51.2864 30.2492 51.3005C30.9706 51.2652 31.6832 51.4715 32.2741 51.8868Z" fill="white"/>
<g opacity="0.3">
<path opacity="0.3" d="M39.0733 12.8067C37.5438 12.8053 36.0774 12.2417 34.9959 11.2394C33.9145 10.2371 33.3062 8.87818 33.3047 7.46077V0.0407715H7.52818C5.53158 0.0407715 3.61677 0.775816 2.20496 2.08419C0.793151 3.39257 0 5.1671 0 7.01743V49.0745C0.00296494 50.923 0.797417 52.6949 2.2089 54.001C3.62039 55.3072 5.53352 56.0408 7.52818 56.0408H38.4718C40.467 56.0408 42.3805 55.3068 43.7921 54.0001C45.2037 52.6934 45.9978 50.9209 46 49.0719V12.8067H39.0733Z" fill="#005FAD"/>
</g>
<path d="M45.9999 13.8159H39.0732C37.5438 13.8144 36.0774 13.2062 34.9959 12.1247C33.9144 11.0432 33.3062 9.57678 33.3047 8.04733V0.0407715L45.9999 13.8159Z" fill="#005FAD"/>
<path d="M15.3027 18.0408H11.4561V21.8874H15.3027V18.0408Z" fill="#005FAD"/>
<path d="M19.1518 21.8872H15.3052V25.7338H19.1518V21.8872Z" fill="#005FAD"/>
<path d="M22.9985 18.0408H19.1519V21.8874H22.9985V18.0408Z" fill="#005FAD"/>
<path d="M26.8452 21.8872H22.9985V25.7338H26.8452V21.8872Z" fill="#005FAD"/>
<path d="M30.6977 18.0408H26.8511V21.8874H30.6977V18.0408Z" fill="#005FAD"/>
<path d="M34.5439 21.8872H30.6973V25.7338H34.5439V21.8872Z" fill="#005FAD"/>
<path d="M15.3027 25.7283H11.4561V29.5749H15.3027V25.7283Z" fill="#005FAD"/>
<path d="M19.1518 29.575H15.3052V33.4216H19.1518V29.575Z" fill="#005FAD"/>
<path d="M22.9985 25.7283H19.1519V29.5749H22.9985V25.7283Z" fill="#005FAD"/>
<path d="M26.8452 29.575H22.9985V33.4216H26.8452V29.575Z" fill="#005FAD"/>
<path d="M30.6977 25.7283H26.8511V29.5749H30.6977V25.7283Z" fill="#005FAD"/>
<path d="M34.5439 29.575H30.6973V33.4216H34.5439V29.575Z" fill="#005FAD"/>
<path d="M15.3027 33.4524H11.4561V37.299H15.3027V33.4524Z" fill="#005FAD"/>
<path d="M19.1518 37.2988H15.3052V41.1454H19.1518V37.2988Z" fill="#005FAD"/>
<path d="M22.9985 33.4524H19.1519V37.299H22.9985V33.4524Z" fill="#005FAD"/>
<path d="M26.8452 37.2988H22.9985V41.1454H26.8452V37.2988Z" fill="#005FAD"/>
<path d="M30.6977 33.4524H26.8511V37.299H30.6977V33.4524Z" fill="#005FAD"/>
<path d="M34.5439 37.2988H30.6973V41.1454H34.5439V37.2988Z" fill="#005FAD"/>
</svg>
