<svg width="46" height="62" viewBox="0 0 46 62" fill="none" xmlns="http://www.w3.org/2000/svg">
<g opacity="0.3">
<path opacity="0.3" d="M39.0733 12.8069C37.5438 12.8056 36.0774 12.242 34.9959 11.2399C33.9145 10.2378 33.3063 8.8791 33.3048 7.46196V0.0407715H7.52817C5.53157 0.0407715 3.61679 0.775695 2.20498 2.08383C0.793169 3.39197 0 5.16614 0 7.01612V49.0654C0 50.9153 0.793169 52.6896 2.20498 53.9977C3.61679 55.3058 5.53157 56.0408 7.52817 56.0408H38.469C39.4579 56.0411 40.4371 55.8609 41.3508 55.5105C42.2645 55.1601 43.0947 54.6464 43.7941 53.9987C44.4934 53.3509 45.0482 52.5818 45.4267 51.7354C45.8052 50.8889 46 49.9816 46 49.0654V12.8069H39.0733Z" fill="#FF3E4C"/>
</g>
<path d="M45.6662 13.7188H38.7897C37.2713 13.7173 35.8155 13.1135 34.7419 12.0398C33.6682 10.9662 33.0645 9.51041 33.063 7.99204V0.0407715L45.6662 13.7188Z" fill="#FF3E4C"/>
<path d="M36.5256 46.0408H9.47438C7.55551 46.0408 6 47.5949 6 49.512V57.5696C6 59.4867 7.55551 61.0408 9.47438 61.0408H36.5256C38.4444 61.0408 40 59.4867 40 57.5696V49.512C40 47.5949 38.4444 46.0408 36.5256 46.0408Z" fill="#FF3E4C"/>
<path d="M15.5099 55.2936V56.8664H13.8809V55.2936H15.5099Z" fill="white"/>
<path d="M17.9034 54.5839V56.8663H16.3306V50.361H18.8791C19.6521 50.361 20.2405 50.5528 20.6444 50.9364C20.8494 51.1375 21.0095 51.3796 21.1143 51.647C21.2191 51.9143 21.2661 52.2007 21.2523 52.4875C21.2591 52.8657 21.1658 53.2388 20.9819 53.5693C20.7927 53.8925 20.5119 54.1523 20.1749 54.3157C19.77 54.508 19.3249 54.6007 18.8769 54.5861L17.9034 54.5839ZM19.6514 52.4875C19.6514 51.9106 19.3355 51.6222 18.7038 51.6222H17.9034V53.3161H18.7038C19.3355 53.3219 19.6514 53.0457 19.6514 52.4875Z" fill="white"/>
<path d="M23.5994 54.5839V56.8663H22.0244V50.361H24.5729C25.3474 50.361 25.9366 50.5528 26.3404 50.9364C26.5454 51.1375 26.7055 51.3796 26.8103 51.647C26.9151 51.9143 26.9621 52.2007 26.9483 52.4875C26.9554 52.866 26.8613 53.2394 26.6757 53.5693C26.488 53.8928 26.2077 54.1528 25.8709 54.3157C25.466 54.508 25.021 54.6007 24.5729 54.5861L23.5994 54.5839ZM25.3474 52.4875C25.3474 51.9106 25.0315 51.6222 24.3998 51.6222H23.5994V53.3161H24.3998C25.0315 53.3219 25.3474 53.0457 25.3474 52.4875Z" fill="white"/>
<path d="M32.396 50.361V51.6136H30.6285V56.8663H29.0471V51.6136H27.2969V50.361H32.396Z" fill="white"/>
<path d="M20.7432 21.1209H8.60934C8.33361 21.1209 8.06911 21.0116 7.87387 20.8169C7.67864 20.6222 7.56861 20.358 7.56787 20.0822C7.56787 19.806 7.67761 19.5411 7.87292 19.3458C8.06824 19.1505 8.33313 19.0408 8.60934 19.0408H20.7321C21.0083 19.0408 21.2732 19.1505 21.4686 19.3458C21.6639 19.5411 21.7735 19.806 21.7735 20.0822C21.7728 20.3561 21.6643 20.6186 21.4715 20.813C21.2786 21.0074 21.017 21.118 20.7432 21.1209Z" fill="#FF3E4C"/>
<path d="M20.7432 27.3336H8.60934C8.33361 27.3336 8.06911 27.2242 7.87387 27.0295C7.67864 26.8348 7.56861 26.5706 7.56787 26.2949C7.56787 26.0187 7.67761 25.7537 7.87292 25.5584C8.06824 25.3631 8.33313 25.2534 8.60934 25.2534H20.7321C21.0083 25.2534 21.2732 25.3631 21.4686 25.5584C21.6639 25.7537 21.7735 26.0187 21.7735 26.2949C21.7728 26.5687 21.6643 26.8312 21.4715 27.0256C21.2786 27.22 21.017 27.3307 20.7432 27.3336Z" fill="#FF3E4C"/>
<path d="M20.7432 33.5463H8.60934C8.33313 33.5463 8.06824 33.4365 7.87292 33.2412C7.67761 33.0459 7.56787 32.781 7.56787 32.5048C7.57007 32.23 7.68076 31.9673 7.87584 31.7737C8.07091 31.5802 8.33457 31.4717 8.60934 31.4717H20.7321C21.0078 31.4717 21.2723 31.581 21.4675 31.7757C21.6628 31.9704 21.7728 32.2346 21.7735 32.5104C21.7721 32.7837 21.6633 33.0455 21.4705 33.2393C21.2778 33.4331 21.0165 33.5434 20.7432 33.5463Z" fill="#FF3E4C"/>
<path d="M20.7432 39.7591H8.60934C8.33313 39.7591 8.06824 39.6494 7.87292 39.4541C7.67761 39.2588 7.56787 38.9939 7.56787 38.7176C7.56861 38.4419 7.67864 38.1777 7.87387 37.983C8.06911 37.7883 8.33361 37.679 8.60934 37.679H20.7321C21.0078 37.679 21.2723 37.7883 21.4675 37.983C21.6628 38.1777 21.7728 38.4419 21.7735 38.7176C21.7736 38.992 21.6654 39.2551 21.4725 39.4501C21.2796 39.6451 21.0175 39.7562 20.7432 39.7591Z" fill="#FF3E4C"/>
<path d="M32.5637 30.6386V21.407C30.3147 21.5257 28.1969 22.5027 26.6468 24.1365C25.0967 25.7703 24.2324 27.9365 24.2319 30.1887C24.2316 31.3434 24.4587 32.487 24.9005 33.554C25.3422 34.6209 25.9899 35.5904 26.8065 36.407C27.623 37.2235 28.5925 37.8712 29.6595 38.313C30.7264 38.7547 31.8699 38.9819 33.0247 38.9815C35.2768 38.9817 37.4431 38.1175 39.0766 36.5672C40.7101 35.0169 41.6863 32.8987 41.8037 30.6497L32.5637 30.6386Z" fill="#FF3E4C"/>
<path d="M34.2466 20.7043V29.0361H42.5784C42.4671 26.8624 41.5535 24.8073 40.0145 23.2682C38.4754 21.7292 36.4203 20.8156 34.2466 20.7043Z" fill="#FF3E4C"/>
</svg>
