<svg width="330" height="268" viewBox="0 0 330 268" fill="none" xmlns="http://www.w3.org/2000/svg">
<path d="M280.208 51.3405C280.208 51.3405 246.155 6.49582 180.559 0.555036C114.963 -5.38574 96.8932 37.8334 74.1697 59.9628C51.4462 82.0922 3.92821 98.3386 0.305989 151.83C-3.31624 205.322 25.6203 232.328 65.9021 231.247C106.184 230.166 118.585 239.358 152.671 257.725C186.756 276.092 243.573 268.525 270.43 240.975C297.287 213.425 317.461 199.918 323.113 148.563C328.765 97.2082 280.208 51.3405 280.208 51.3405Z" fill="#F0E4FF"/>
<path d="M65.9519 63.6757L88.0813 215.372C88.3701 217.369 36.8586 235.859 34.9278 236.453L30.4145 236.693C27.4936 236.767 25.4638 235.546 25.1008 233.037L3.94501 72.3146C3.83231 71.4767 4.05655 70.6282 4.56853 69.9554C5.08052 69.2825 5.83846 68.8402 6.67612 68.7254L62.3792 60.9611C63.2117 60.855 64.0525 61.0801 64.7207 61.5878C65.3889 62.0955 65.831 62.8453 65.9519 63.6757Z" fill="white" stroke="#263238" stroke-linecap="round" stroke-linejoin="round"/>
<path d="M72.2807 62.8424L94.3936 214.539C94.5285 215.505 94.3165 216.488 93.7953 217.312C93.2742 218.137 92.4776 218.751 91.547 219.044L36.7268 235.868C36.1579 236.036 35.5594 236.08 34.972 235.996C34.3847 235.911 33.8224 235.702 33.3236 235.381C32.8247 235.06 32.4009 234.635 32.0812 234.135C31.7615 233.635 31.5533 233.072 31.4709 232.485L10.2573 71.4813C10.147 70.6425 10.3732 69.7941 10.8865 69.1215C11.3998 68.449 12.1585 68.007 12.9967 67.8921L68.6503 60.1278C69.4915 60.0075 70.3461 60.2257 71.0266 60.7346C71.7072 61.2435 72.1582 62.0015 72.2807 62.8424Z" fill="#263238" stroke="#263238" stroke-linecap="round" stroke-linejoin="round"/>
<path d="M59.0127 220.298L71.1996 216.238" stroke="white" stroke-width="2" stroke-linecap="round" stroke-linejoin="round"/>
<path d="M67.9898 66.8359L18.145 75.3098L37.2545 221.833L88.0895 206.048L67.9898 66.8359Z" fill="#F8F2FF" stroke="#263238" stroke-linecap="round" stroke-linejoin="round"/>
<path d="M267.006 63.6759L244.835 215.372C244.546 217.369 296.058 235.859 297.989 236.454L302.502 236.693C305.423 236.767 307.453 235.546 307.816 233.038L328.971 72.3147C329.084 71.4755 328.859 70.626 328.345 69.9529C327.831 69.2798 327.071 68.8383 326.232 68.7255L270.579 60.9612C269.746 60.8552 268.905 61.0802 268.237 61.5879C267.569 62.0956 267.127 62.8454 267.006 63.6759Z" fill="white" stroke="#263238" stroke-linecap="round" stroke-linejoin="round"/>
<path d="M260.653 62.8425L238.523 214.539C238.389 215.505 238.601 216.488 239.122 217.313C239.643 218.137 240.44 218.751 241.37 219.044L296.19 235.868C296.759 236.036 297.358 236.08 297.945 235.996C298.532 235.912 299.095 235.702 299.594 235.381C300.092 235.06 300.516 234.635 300.836 234.135C301.156 233.635 301.364 233.072 301.446 232.485L322.66 71.4814C322.77 70.6426 322.544 69.7942 322.031 69.1216C321.517 68.4491 320.759 68.0071 319.92 67.8922L264.267 60.1279C263.428 60.0123 262.578 60.2328 261.901 60.7412C261.224 61.2496 260.776 62.0049 260.653 62.8425Z" fill="#263238" stroke="#263238" stroke-linecap="round" stroke-linejoin="round"/>
<path d="M259.407 215.075L271.016 218.846" stroke="white" stroke-width="2" stroke-linecap="round" stroke-linejoin="round"/>
<path d="M264.927 66.8361L314.772 75.3099L295.662 221.833L244.827 206.048L264.927 66.8361Z" fill="#F8F2FF" stroke="#263238" stroke-linecap="round" stroke-linejoin="round"/>
<path d="M40.563 135.79C43.4591 132.069 47.2464 129.808 51.3967 129.808C60.4729 129.808 67.8163 140.584 67.8163 153.885C67.8163 165.197 62.4861 174.694 55.3077 177.269" stroke="#263238" stroke-linecap="round" stroke-linejoin="round"/>
<path d="M36.8501 142.688C37.4103 141.107 38.1175 139.583 38.9624 138.134" stroke="#263238" stroke-linecap="round" stroke-linejoin="round"/>
<path d="M51.3969 177.929C42.3207 177.929 34.9855 167.144 34.9855 153.852C34.9776 151.006 35.3241 148.171 36.0169 145.411" stroke="#263238" stroke-linecap="round" stroke-linejoin="round"/>
<path d="M286.66 133.315C283.764 129.594 279.977 127.333 275.826 127.333C266.75 127.333 259.415 138.109 259.415 151.41C259.415 162.722 264.737 172.219 271.915 174.793" stroke="#263238" stroke-linecap="round" stroke-linejoin="round"/>
<path d="M290.373 140.213C289.813 138.632 289.106 137.107 288.261 135.658" stroke="#263238" stroke-linecap="round" stroke-linejoin="round"/>
<path d="M275.827 175.453C284.903 175.453 292.246 164.669 292.246 151.377C292.252 148.531 291.902 145.695 291.207 142.936" stroke="#263238" stroke-linecap="round" stroke-linejoin="round"/>
<path d="M256.957 70.9863C256.957 70.9863 263.764 61.184 274.729 64.3442C285.695 67.5044 291.347 74.9716 290.514 82.7854C289.68 90.5991 287.692 99.8981 293.171 101.887C298.649 103.875 306.793 101.062 311.323 107.374C315.853 113.686 317.635 123.488 311.158 131.789C304.681 140.089 290.349 142.259 279.548 135.79C268.747 129.321 261.107 121.004 260.942 109.04C260.777 97.0762 264.242 91.5975 263.417 84.7821C262.592 77.9667 260.76 77.4717 260.76 77.4717L256.957 70.9863Z" fill="#263238" stroke="#263238" stroke-linecap="round" stroke-linejoin="round"/>
<path d="M273.071 81.3332C275.777 87.2245 270.983 99.9806 270.595 105.072C269.481 118.95 275.034 130.881 290.299 133.373C305.563 135.865 311.661 123.389 310.003 117.283C308.823 112.968 302.23 114.23 301.677 120.056C301.124 125.881 306.669 122.828 306.95 121.706" stroke="white" stroke-width="0.75" stroke-linecap="round" stroke-linejoin="round"/>
<path d="M258.928 78.4617C258.928 78.4617 265.084 75.3758 270.744 78.8496" stroke="white" stroke-width="0.75" stroke-linecap="round" stroke-linejoin="round"/>
<path d="M295.885 124.8C296.814 124.512 297.714 124.139 298.575 123.686" stroke="white" stroke-width="0.75" stroke-linecap="round" stroke-linejoin="round"/>
<path d="M256.981 77.3479C256.981 77.3479 265.859 70.4087 275.851 72.9088C285.843 75.4089 286.396 88.9984 282.79 97.3238C279.185 105.649 277.518 115.922 283.615 122.3C284.741 123.483 286.126 124.388 287.661 124.943C289.196 125.499 290.839 125.69 292.461 125.501" stroke="white" stroke-width="0.75" stroke-linecap="round" stroke-linejoin="round"/>
<path d="M247.484 107.374C247.484 107.374 240.008 106.045 236.353 108.034C232.698 110.022 211.6 125.807 211.6 125.807L193.662 112.192V120.996C193.662 120.996 206.121 135.947 209.777 136.937C213.432 137.927 239.01 123.818 239.01 123.818C239.01 123.818 238.02 137.606 239.678 140.592C241.337 143.579 249.316 146.079 255.793 148.901C262.27 151.723 269.085 159.537 273.071 161.36C277.056 163.184 280.216 162.689 283.038 154.883C285.86 147.078 282.37 141.929 281.388 139.767C277.475 132.51 273.09 125.517 268.26 118.834C262.608 111.194 247.484 107.374 247.484 107.374Z" fill="#B67AFD"/>
<path d="M272.905 153.637C270.529 150.733 274.225 147.037 277.13 144.668C280.034 142.3 264.2 144.14 263.408 142.82C262.616 141.5 266.841 139.124 269.184 137.044C271.527 134.965 262.212 139.363 256.807 136.219C251.403 133.076 248.103 134.14 248.103 134.14C248.103 134.14 253.878 126.227 255.223 121.475C256.568 116.722 254.398 115.938 254.398 115.938L252.847 109.131C249.736 107.984 247.451 107.407 247.451 107.407C247.451 107.407 239.975 106.078 236.32 108.067C232.665 110.055 211.567 125.84 211.567 125.84L193.629 112.225V121.029C193.629 121.029 206.088 135.98 209.743 136.97C213.399 137.96 238.977 123.851 238.977 123.851C238.977 123.851 237.987 137.639 239.645 140.625C241.304 143.612 249.282 146.112 255.76 148.934C262.237 151.756 269.052 159.57 273.037 161.393C276.28 162.879 278.978 162.829 281.387 158.555C278.83 156.913 274.432 155.486 272.905 153.637Z" fill="#B97DFB"/>
<path opacity="0.5" d="M272.905 153.637C270.529 150.733 274.225 147.037 277.13 144.668C280.034 142.3 264.2 144.14 263.408 142.82C262.616 141.5 266.841 139.124 269.184 137.044C271.527 134.965 262.212 139.363 256.807 136.219C251.403 133.076 248.103 134.14 248.103 134.14C248.103 134.14 253.878 126.227 255.223 121.475C256.568 116.722 254.398 115.938 254.398 115.938L252.847 109.131C249.736 107.984 247.451 107.407 247.451 107.407C247.451 107.407 239.975 106.078 236.32 108.067C232.665 110.055 211.567 125.84 211.567 125.84L193.629 112.225V121.029C193.629 121.029 206.088 135.98 209.743 136.97C213.399 137.96 238.977 123.851 238.977 123.851C238.977 123.851 237.987 137.639 239.645 140.625C241.304 143.612 249.282 146.112 255.76 148.934C262.237 151.756 269.052 159.57 273.037 161.393C276.28 162.879 278.978 162.829 281.387 158.555C278.83 156.913 274.432 155.486 272.905 153.637Z" fill="#B67AFD"/>
<path d="M247.484 107.374C247.484 107.374 240.008 106.045 236.353 108.034C232.698 110.022 211.6 125.807 211.6 125.807L193.662 112.192V120.996C193.662 120.996 206.121 135.947 209.777 136.937C213.432 137.927 239.01 123.818 239.01 123.818C239.01 123.818 238.02 137.606 239.678 140.592C241.337 143.579 249.316 146.079 255.793 148.901C262.27 151.723 269.085 159.537 273.071 161.36C277.056 163.184 280.216 162.689 283.038 154.883C285.86 147.078 282.37 141.929 281.388 139.767C277.475 132.51 273.09 125.517 268.26 118.834C262.608 111.194 247.484 107.374 247.484 107.374Z" stroke="#263238" stroke-linecap="round" stroke-linejoin="round"/>
<path d="M262.237 139.33C262.237 139.33 268.838 138.917 273.376 136.442" stroke="#263238" stroke-linecap="round" stroke-linejoin="round"/>
<path d="M260.174 140.98C260.174 140.98 269.25 142.218 276.263 140.98" stroke="#263238" stroke-linecap="round" stroke-linejoin="round"/>
<path d="M230.883 117.877L239.01 123.818L224.695 119.94" stroke="#263238" stroke-linecap="round" stroke-linejoin="round"/>
<path d="M244.555 109.007C244.555 109.007 243.144 115.748 245.38 120.237C247.616 124.726 250.991 125.856 253.524 122.49C256.057 119.123 256.61 110.938 252.121 108.727C247.633 106.515 245.397 107.885 244.555 109.007Z" fill="#263238" stroke="#263238" stroke-linecap="round" stroke-linejoin="round"/>
<path d="M80.3584 100.591C80.3584 100.591 76.2329 99.1308 68.5346 106.573C60.8364 114.016 53.2041 121.425 48.3855 129.784C43.5668 138.142 41.2318 150.411 40.6542 157.837C40.5421 159.89 40.9282 161.939 41.7794 163.811C42.6306 165.682 43.9218 167.32 45.5428 168.584C47.1638 169.848 49.0665 170.702 51.0888 171.072C53.111 171.442 55.1927 171.317 57.1564 170.709C62.9321 169.009 82.2149 142.952 85.2761 138.86C88.3372 134.767 91.4066 129.668 91.4066 129.668C91.4066 129.668 107.463 144.702 113.305 147.325C119.147 149.949 128.388 148.167 128.388 148.167L128.825 138.266C128.825 138.266 120.211 136.805 119.485 136.368C118.759 135.931 106.349 121.92 99.9217 114.181C93.4942 106.441 89.1211 101.631 85.8949 100.459C85.0112 100.105 84.0648 99.9344 83.1131 99.9571C82.1614 99.9798 81.2242 100.196 80.3584 100.591Z" fill="#B87CFC"/>
<path d="M80.3584 100.591C80.3584 100.591 76.2329 99.1308 68.5346 106.573C60.8364 114.016 53.2041 121.425 48.3855 129.784C43.5668 138.142 41.2318 150.411 40.6542 157.837C40.5421 159.89 40.9282 161.939 41.7794 163.811C42.6306 165.682 43.9218 167.32 45.5428 168.584C47.1638 169.848 49.0665 170.702 51.0888 171.072C53.111 171.442 55.1927 171.317 57.1564 170.709C62.9321 169.009 82.2149 142.952 85.2761 138.86C88.3372 134.767 91.4066 129.668 91.4066 129.668C91.4066 129.668 107.463 144.702 113.305 147.325C119.147 149.949 128.388 148.167 128.388 148.167L128.825 138.266C128.825 138.266 120.211 136.805 119.485 136.368C118.759 135.931 106.349 121.92 99.9217 114.181C93.4942 106.441 89.1211 101.631 85.8949 100.459C85.0112 100.105 84.0648 99.9344 83.1131 99.9571C82.1614 99.9798 81.2242 100.196 80.3584 100.591V100.591Z" stroke="#263238" stroke-linecap="round" stroke-linejoin="round"/>
<path d="M47.709 147.581C49.0394 148.164 50.4974 148.394 51.9426 148.249C53.3877 148.105 54.7713 147.59 55.9601 146.756" stroke="#263238" stroke-linecap="round" stroke-linejoin="round"/>
<path d="M43.583 153.769C43.583 153.769 54.3094 154.182 59.2601 147.581" stroke="#263238" stroke-linecap="round" stroke-linejoin="round"/>
<path d="M101.753 124.066L91.4478 129.643L104.641 128.191" stroke="#263238" stroke-linecap="round" stroke-linejoin="round"/>
<path d="M78.7001 99.2133C78.7001 99.2133 71.1339 103.133 70.8534 106.218C70.5728 109.304 70.0943 114.337 72.0498 119.94C74.0053 125.542 77.578 129.47 79.2612 129.189C80.9444 128.909 85.7053 124.148 86.2664 113.215C86.8275 102.283 83.461 99.2133 78.7001 99.2133Z" fill="#263238" stroke="#263238" stroke-linecap="round" stroke-linejoin="round"/>
<path d="M206.831 88.1733H123.083V175.222H206.831V88.1733Z" fill="#263238" stroke="#263238" stroke-linecap="round" stroke-linejoin="round"/>
<path d="M203.258 91.8863H126.655V171.509H203.258V91.8863Z" fill="white" stroke="#263238" stroke-linecap="round" stroke-linejoin="round"/>
<path d="M203.258 95.2527C190.585 100.665 193.473 115.245 183.728 125.716C172.589 137.68 159.387 126.953 139.997 138.917C134.369 142.477 129.769 147.446 126.655 153.332V171.485H203.258V95.2527Z" fill="#DABCFE" stroke="#263238" stroke-linecap="round" stroke-linejoin="round"/>
<path d="M142.266 118.702C147.621 118.702 151.961 114.362 151.961 109.007C151.961 103.653 147.621 99.3123 142.266 99.3123C136.912 99.3123 132.571 103.653 132.571 109.007C132.571 114.362 136.912 118.702 142.266 118.702Z" fill="#DABCFE" stroke="#263238" stroke-linecap="round" stroke-linejoin="round"/>
<path d="M173.694 86.8285C173.694 86.8285 172.242 85.9538 171.359 87.1172C170.477 88.2806 169.321 90.1866 169.759 91.2428C170.196 92.2989 171.656 90.3682 172.531 89.345C172.884 89.0248 173.168 88.6371 173.368 88.2048C173.568 87.7725 173.679 87.3045 173.694 86.8285Z" fill="white" stroke="#263238" stroke-linecap="round" stroke-linejoin="round"/>
<path d="M176.038 86.3911C175.877 86.2148 175.674 86.0825 175.447 86.0067C175.221 85.9309 174.979 85.914 174.744 85.9578C174.51 86.0016 174.29 86.1045 174.106 86.2569C173.923 86.4092 173.781 86.6059 173.694 86.8284C172.82 88.5776 173.257 92.6619 173.991 93.0992C174.726 93.5365 175.155 93.3962 175.741 91.2014C176.326 89.0066 176.615 88.1403 176.038 86.3911Z" fill="white" stroke="#263238" stroke-linecap="round" stroke-linejoin="round"/>
<path d="M178.373 86.2839C178.212 86.1095 178.009 85.9789 177.784 85.9043C177.559 85.8296 177.318 85.8134 177.085 85.8571C176.852 85.9008 176.633 86.003 176.45 86.1541C176.267 86.3052 176.125 86.5003 176.038 86.7212C175.155 88.4704 175.593 92.5629 176.327 93.0002C177.061 93.4375 177.49 93.289 178.076 91.1025C178.662 88.9159 178.951 87.9918 178.373 86.2839Z" fill="white" stroke="#263238" stroke-linecap="round" stroke-linejoin="round"/>
<path d="M180.708 86.094C180.547 85.9197 180.345 85.7891 180.119 85.7145C179.894 85.6398 179.653 85.6236 179.42 85.6673C179.187 85.711 178.968 85.8132 178.785 85.9643C178.602 86.1154 178.46 86.3105 178.373 86.5314C177.49 88.2888 177.936 92.3731 178.662 92.8104C179.388 93.2477 179.825 93.0992 180.411 90.9127C180.997 88.7261 181.286 87.8515 180.708 86.094Z" fill="white" stroke="#263238" stroke-linecap="round" stroke-linejoin="round"/>
<path d="M185.519 178.143L188.522 175.767" stroke="#263238" stroke-linecap="round" stroke-linejoin="round"/>
<path d="M82.6931 96.0696C82.6931 96.0696 79.6237 99.7165 77.4372 101.903C75.2507 104.09 74.2275 104.098 74.2275 108.331C74.2275 112.563 76.0263 123.48 78.6501 124.065C81.274 124.651 92.0334 108.768 92.0334 108.768L88.2379 94.1718C88.2379 94.1718 84.1536 94.0233 82.6931 96.0696Z" fill="white"/>
<path d="M82.6931 96.0696C82.6931 96.0696 79.6237 99.7165 77.4372 101.903C75.2507 104.09 74.2275 104.098 74.2275 108.331C74.2275 112.563 76.0263 123.48 78.6501 124.065C81.274 124.651 92.0334 108.768 92.0334 108.768L88.2379 94.1718C88.2379 94.1718 84.1536 94.0233 82.6931 96.0696Z" stroke="#263238" stroke-linecap="round" stroke-linejoin="round"/>
<path d="M107.76 85.2607C108.453 87.0099 108.585 89.015 108.585 91.5398C108.585 94.4607 107.711 96.9443 108.148 98.2562C108.585 99.5681 110.772 101.326 110.194 102.638C109.617 103.949 106.25 104.676 106.25 105.113C105.235 107.945 103.965 110.679 102.455 113.281C100.994 115.616 97.504 114.593 92.3801 112.555C87.2562 110.517 86.5466 106.714 85.9607 104.23C85.3749 101.746 86.3981 92.992 86.6868 86.7129C86.8436 83.4125 87.512 80.9949 90.8124 79.518C92.948 78.6157 95.2761 78.2645 97.5829 78.4966C99.8896 78.7287 102.101 79.5367 104.014 80.8464C105.689 81.895 106.998 83.4373 107.76 85.2607Z" fill="white"/>
<path d="M107.76 85.2607C108.453 87.0099 108.585 89.015 108.585 91.5398C108.585 94.4607 107.711 96.9443 108.148 98.2562C108.585 99.5681 110.772 101.326 110.194 102.638C109.617 103.949 106.25 104.676 106.25 105.113C105.235 107.945 103.965 110.679 102.455 113.281C100.994 115.616 97.504 114.593 92.3801 112.555C87.2562 110.517 86.5466 106.714 85.9607 104.23C85.3749 101.746 86.3981 92.992 86.6868 86.7129C86.8436 83.4125 87.5119 80.9949 90.8124 79.518C92.948 78.6157 95.2761 78.2645 97.5829 78.4966C99.8896 78.7287 102.101 79.5367 104.014 80.8464C105.689 81.895 106.998 83.4373 107.76 85.2607V85.2607Z" stroke="#263238" stroke-linecap="round" stroke-linejoin="round"/>
<path d="M104.938 97.0597C104.88 98.0664 104.509 98.8585 104.113 98.8337C103.717 98.809 103.445 98.0086 103.502 96.969C103.56 95.9293 103.931 95.1702 104.327 95.195C104.724 95.2197 104.996 96.0531 104.938 97.0597Z" fill="#222220"/>
<path d="M97.1411 103.364C97.1411 103.364 97.5784 105.996 101.085 106.284" stroke="#263238" stroke-linecap="round" stroke-linejoin="round"/>
<path d="M101.984 93.1487C101.984 93.1487 103.882 90.9622 106.366 92.2741" stroke="#263238" stroke-linecap="round" stroke-linejoin="round"/>
<path d="M86.0513 94.0234C86.0513 94.0234 88.3864 95.195 88.8237 93.4376C89.261 91.6801 89.0382 90.6734 90.2016 90.2361C91.365 89.7988 95.5401 89.3533 94.9542 86.7212C94.3684 84.0891 93.2545 83.6848 95.1523 82.8102C97.05 81.9355 100.359 83.7755 105.466 86.1106C110.574 88.4457 115.532 86.1106 117.282 83.0742C119.031 80.0378 118.016 70.6976 111.3 70.6976C106.861 70.6976 105.78 72.3478 104.765 72.8016C103.75 73.2554 95.9691 68.7916 87.6438 70.5408C79.3184 72.29 77.4372 84.1056 78.5676 87.7526C79.698 91.3995 80.6469 98.4047 86.0513 94.0234Z" fill="#263238" stroke="#263238" stroke-linecap="round" stroke-linejoin="round"/>
<path d="M112.809 82.7853C112.461 83.2274 112.023 83.59 111.524 83.849C111.024 84.1079 110.475 84.2573 109.913 84.287C104.641 84.8399 99.3685 80.4008 94.3766 78.7341C89.3847 77.0673 81.3316 79.2869 78.8315 84.287C78.8315 84.287 83.2706 80.1202 90.2098 83.1731" stroke="white" stroke-width="0.75" stroke-linecap="round" stroke-linejoin="round"/>
<path d="M113.536 77.0674C113.789 78.1822 113.847 79.3321 113.709 80.4668" stroke="white" stroke-width="0.75" stroke-linecap="round" stroke-linejoin="round"/>
<path d="M87.215 95.9211C87.215 95.9211 85.9031 89.7905 84.1538 88.9159C82.4046 88.0413 79.921 88.1816 79.624 92.7114C79.3269 97.2412 81.8188 99.4278 83.1307 99.7166C84.4426 100.005 86.4889 98.842 86.4889 98.842" fill="white"/>
<path d="M87.215 95.9211C87.215 95.9211 85.9031 89.7905 84.1538 88.9159C82.4046 88.0413 79.921 88.1816 79.624 92.7114C79.3269 97.2412 81.8188 99.4278 83.1307 99.7166C84.4426 100.005 86.4889 98.842 86.4889 98.842" stroke="#263238" stroke-linecap="round" stroke-linejoin="round"/>
<path d="M131.3 173.745L138.594 168.489C139.498 167.794 140.574 167.359 141.707 167.231C142.84 167.103 143.986 167.287 145.022 167.763C147.186 168.514 149.39 169.148 151.623 169.661C152.06 169.661 151.771 170.684 150.451 171.121C149.131 171.559 147.093 171.27 145.641 171.121C144.678 171.061 143.717 171.263 142.86 171.707C142.86 171.707 149.576 172.871 151.326 173.456C153.075 174.042 155.567 175.065 154.832 175.792C154.225 176.476 153.48 177.025 152.646 177.401C152.06 177.541 150.996 176.815 149.139 177.689C147.283 178.564 143.297 179.736 141.4 179.736C139.502 179.736 131.333 177.401 131.333 177.401L131.3 173.745Z" fill="white" stroke="#263238" stroke-linecap="round" stroke-linejoin="round"/>
<path d="M49.1196 138.983C49.1196 138.983 66.4469 170.511 70.4322 176.938C74.4174 183.366 78.4605 183.944 80.7955 183.944C83.1306 183.944 131.3 177.343 131.3 177.343V173.745C131.3 173.745 107.372 172.582 100.499 171.121C93.626 169.661 83.4194 169.075 83.4194 169.075C83.4194 169.075 73.9306 141.319 70.1351 135.914C67.9017 132.714 64.5829 130.433 60.7949 129.495" fill="#B87CFC"/>
<path d="M49.1196 138.983C49.1196 138.983 66.4469 170.511 70.4322 176.938C74.4174 183.366 78.4605 183.944 80.7955 183.944C83.1306 183.944 131.3 177.343 131.3 177.343V173.745C131.3 173.745 107.372 172.582 100.499 171.121C93.626 169.661 83.4194 169.075 83.4194 169.075C83.4194 169.075 73.9306 141.319 70.1351 135.914C67.9017 132.714 64.5829 130.433 60.7949 129.495" stroke="#263238" stroke-linecap="round" stroke-linejoin="round"/>
<path d="M253.969 126.97L230.206 154.198L195.321 164.669C195.321 164.669 186.022 163.844 183.86 163.671C181.698 163.497 180.04 165.164 178.711 166.493C177.383 167.821 174.058 168.968 174.726 169.983C175.394 170.998 176.55 170.486 178.711 169.818C180.873 169.149 182.367 168.819 182.367 168.819C182.367 168.819 175.221 175.47 173.398 177.293C171.574 179.117 171.896 180.115 173.059 180.115C174.223 180.115 180.535 174.339 180.535 174.339C179.408 175.655 178.356 177.032 177.383 178.465C176.22 180.288 174.553 181.765 175.733 182.12C176.913 182.475 181.715 177.995 181.715 177.995L184.042 176.493C184.042 176.493 180.221 180.816 181.055 181.312C181.888 181.807 185.535 178.16 185.535 178.16C185.535 178.16 191.517 176.163 193.175 174.174C194.834 172.186 195.841 170.874 195.841 170.874C195.841 170.874 214.612 167.384 221.584 166.22C228.556 165.057 236.708 164.059 239.695 161.402C242.682 158.745 266.272 136.318 267.435 133.348" fill="#B87CFC"/>
<path d="M253.969 126.97L230.206 154.198L195.321 164.669C195.321 164.669 186.022 163.844 183.86 163.671C181.698 163.497 180.04 165.164 178.711 166.493C177.383 167.821 174.058 168.968 174.726 169.983C175.394 170.998 176.55 170.486 178.711 169.818C180.873 169.149 182.367 168.819 182.367 168.819C182.367 168.819 175.221 175.47 173.398 177.293C171.574 179.117 171.896 180.115 173.059 180.115C174.223 180.115 180.535 174.339 180.535 174.339C179.408 175.655 178.356 177.032 177.383 178.465C176.22 180.288 174.553 181.765 175.733 182.12C176.913 182.475 181.715 177.995 181.715 177.995L184.042 176.493C184.042 176.493 180.221 180.816 181.055 181.312C181.888 181.807 185.535 178.16 185.535 178.16C185.535 178.16 191.517 176.163 193.175 174.174C194.834 172.186 195.841 170.874 195.841 170.874C195.841 170.874 214.612 167.384 221.584 166.22C228.556 165.057 236.708 164.059 239.695 161.402C242.682 158.745 266.272 136.318 267.435 133.348" stroke="#263238" stroke-linecap="round" stroke-linejoin="round"/>
<path d="M178.72 166.509C177.391 167.838 174.066 168.984 174.734 169.999C175.403 171.014 176.558 170.503 178.72 169.834C180.881 169.166 182.375 168.836 182.375 168.836C182.375 168.836 175.229 175.486 173.406 177.31C171.582 179.133 171.904 180.132 173.068 180.132C174.231 180.132 180.543 174.356 180.543 174.356C179.416 175.671 178.364 177.049 177.391 178.481C176.228 180.305 174.561 181.782 175.741 182.137C176.921 182.491 181.723 178.011 181.723 178.011L184.05 176.509C184.05 176.509 180.23 180.833 181.063 181.328C181.896 181.823 185.543 178.176 185.543 178.176C185.543 178.176 191.525 176.179 193.184 174.191C194.842 172.202 195.849 170.89 195.849 170.89L195.346 164.743C195.346 164.743 186.047 163.918 183.885 163.745C181.723 163.572 180.04 165.181 178.72 166.509Z" fill="white" stroke="#263238" stroke-linecap="round" stroke-linejoin="round"/>
<path d="M229.216 79.6252C228.021 82.2818 227.505 85.1936 227.715 88.099C228.218 92.4226 228.383 94.5762 227.549 95.7396C226.716 96.903 225.396 96.4079 225.561 98.5697C225.726 100.731 228.383 101.557 228.383 101.557C228.383 101.557 232.038 108.702 233.334 110.195C234.629 111.689 236.485 111.021 237.987 110.36C239.489 109.7 242.467 108.199 242.467 108.199C242.467 108.199 246.288 118.166 248.119 120.493C249.951 122.82 251.42 119.668 251.94 117.003C252.46 114.337 252.765 108.364 251.94 106.375C251.115 104.387 248.78 99.2298 248.78 99.2298C248.78 99.2298 253.598 98.5697 256.593 92.0843C259.588 85.599 253.293 77.1334 244.134 75.1449C234.975 73.1563 230.206 77.2984 229.216 79.6252Z" fill="white"/>
<path d="M229.216 79.6252C228.021 82.2818 227.505 85.1936 227.715 88.099C228.218 92.4226 228.383 94.5762 227.549 95.7396C226.716 96.903 225.396 96.4079 225.561 98.5697C225.726 100.731 228.383 101.557 228.383 101.557C228.383 101.557 232.038 108.702 233.334 110.195C234.629 111.689 236.485 111.021 237.987 110.36C239.489 109.7 242.467 108.199 242.467 108.199C242.467 108.199 246.288 118.166 248.119 120.493C249.951 122.82 251.42 119.668 251.94 117.003C252.46 114.337 252.765 108.364 251.94 106.375C251.115 104.387 248.78 99.2298 248.78 99.2298C248.78 99.2298 253.598 98.5697 256.593 92.0843C259.588 85.599 253.293 77.1334 244.134 75.1449C234.975 73.1563 230.206 77.2984 229.216 79.6252Z" stroke="#263238" stroke-linecap="round" stroke-linejoin="round"/>
<path d="M231.625 95.7396C231.944 95.7396 232.203 95.0709 232.203 94.2461C232.203 93.4213 231.944 92.7527 231.625 92.7527C231.306 92.7527 231.048 93.4213 231.048 94.2461C231.048 95.0709 231.306 95.7396 231.625 95.7396Z" fill="#222220"/>
<path d="M230.38 90.4094C230.38 90.4094 232.698 88.0826 234.027 91.5728" stroke="#263238" stroke-linecap="round" stroke-linejoin="round"/>
<path d="M232.352 104.048C232.352 104.048 236.675 103.883 237.302 100.228" stroke="#263238" stroke-linecap="round" stroke-linejoin="round"/>
<path d="M249.967 90.3187C249.308 90.2136 248.632 90.3502 248.065 90.7034C247.498 91.0567 247.078 91.6027 246.881 92.2412C246.518 93.3221 245.792 94.502 244.332 94.4112C241.675 94.2462 242.005 89.7576 241.031 87.8103C240.058 85.8631 236.716 85.8136 230.734 85.335C224.752 84.8565 220.098 84.8317 220.602 77.1912C221.105 69.5507 225.915 64.237 229.241 65.0621C232.566 65.8872 231.559 69.3857 231.559 69.3857C231.559 69.3857 242.195 64.237 251.164 66.7288C260.133 69.2206 262.294 77.6945 261.964 85.7063C261.634 93.7181 257.649 98.3305 254.984 99.4939C252.319 100.657 250.339 102.489 249.208 102.151C248.078 101.812 247.558 99.1638 248.54 98.3305C249.522 97.4971 252.525 93.8501 251.7 91.7296C251.575 91.3544 251.345 91.0226 251.038 90.7728C250.732 90.523 250.36 90.3655 249.967 90.3187Z" fill="#263238" stroke="#263238" stroke-linecap="round" stroke-linejoin="round"/>
<path d="M227.294 77.3479C227.294 77.3479 224.241 83.4537 231.172 83.726C238.103 83.9983 246.717 79.2869 253.095 81.2507C259.473 83.2144 260.034 89.0149 258.367 92.9012" stroke="white" stroke-width="0.75" stroke-linecap="round" stroke-linejoin="round"/>
<path d="M238.953 76.5145C238.953 76.5145 256.709 69.5754 259.49 79.815" stroke="white" stroke-width="0.75" stroke-linecap="round" stroke-linejoin="round"/>
</svg>
