<svg width="29" height="29" viewBox="0 0 29 29" fill="none" xmlns="http://www.w3.org/2000/svg">
<path d="M29 14.4855C29 6.48875 22.504 0 14.5 0C6.496 0 0 6.48875 0 14.4855C0 18.8899 2.001 22.8592 5.133 25.5236C5.162 25.5526 5.191 25.5526 5.191 25.5816C5.452 25.7846 5.713 25.9876 6.003 26.1906C6.148 26.2776 6.264 26.3918 6.409 26.5078C8.80525 28.1325 11.6339 29.0006 14.529 29C17.4241 29.0006 20.2528 28.1325 22.649 26.5078C22.794 26.4208 22.91 26.3066 23.055 26.2178C23.316 26.0166 23.606 25.8136 23.867 25.6106C23.896 25.5816 23.925 25.5816 23.925 25.5526C26.999 22.8574 29 18.8899 29 14.4855ZM14.5 27.1748C11.774 27.1748 9.28 26.3048 7.221 24.8566C7.25 24.6246 7.308 24.3944 7.366 24.1624C7.5388 23.5337 7.79224 22.9299 8.12 22.3663C8.439 21.8153 8.816 21.3223 9.28 20.8873C9.715 20.4522 10.237 20.0481 10.759 19.7291C11.31 19.4101 11.89 19.1781 12.528 19.0041C13.171 18.8308 13.8341 18.7436 14.5 18.7449C16.4768 18.7309 18.381 19.4892 19.807 20.8583C20.474 21.5253 20.996 22.3083 21.373 23.2054C21.576 23.7274 21.721 24.2784 21.808 24.8566C19.6678 26.3613 17.1162 27.1707 14.5 27.1748ZM10.063 13.7623C9.80748 13.1773 9.67898 12.5447 9.686 11.9063C9.686 11.2701 9.802 10.6321 10.063 10.0521C10.324 9.47213 10.672 8.95194 11.107 8.51694C11.542 8.08194 12.064 7.73575 12.644 7.47475C13.224 7.21375 13.862 7.09775 14.5 7.09775C15.167 7.09775 15.776 7.21375 16.356 7.47475C16.936 7.73575 17.458 8.08375 17.893 8.51694C18.328 8.95194 18.676 9.47394 18.937 10.0521C19.198 10.6321 19.314 11.2701 19.314 11.9063C19.314 12.5733 19.198 13.1823 18.937 13.7605C18.6851 14.3319 18.3314 14.8527 17.893 15.2975C17.4481 15.7352 16.9273 16.0883 16.356 16.3397C15.1576 16.8322 13.8134 16.8322 12.615 16.3397C12.0437 16.0883 11.5229 15.7352 11.078 15.2975C10.639 14.8592 10.2937 14.3363 10.063 13.7605V13.7623ZM23.519 23.3794C23.519 23.3214 23.49 23.2924 23.49 23.2344C23.2048 22.3271 22.7844 21.468 22.243 20.6861C21.7011 19.8983 21.0351 19.2036 20.271 18.6289C19.6874 18.1898 19.0549 17.82 18.386 17.5269C18.6903 17.3261 18.9722 17.0934 19.227 16.8327C19.6594 16.4058 20.0391 15.9288 20.358 15.4117C21.0003 14.3565 21.332 13.1415 21.315 11.9063C21.324 10.9919 21.1463 10.0853 20.793 9.24194C20.4441 8.42929 19.942 7.69145 19.314 7.06875C18.6869 6.45256 17.949 5.96057 17.139 5.61875C16.2942 5.26603 15.3864 5.08903 14.471 5.09856C13.5554 5.08961 12.6477 5.26722 11.803 5.62056C10.986 5.96165 10.2463 6.46407 9.628 7.09775C9.01183 7.72413 8.51983 8.46151 8.178 9.27094C7.82465 10.1143 7.64703 11.0209 7.656 11.9353C7.656 12.5733 7.743 13.1823 7.917 13.7605C8.091 14.3695 8.323 14.9205 8.642 15.4407C8.932 15.9627 9.338 16.4267 9.773 16.8617C10.034 17.1227 10.324 17.3529 10.643 17.5559C9.97208 17.8569 9.3393 18.2365 8.758 18.6869C8.004 19.2669 7.337 19.9611 6.786 20.7151C6.23909 21.4938 5.81827 22.3538 5.539 23.2634C5.51 23.3214 5.51 23.3794 5.51 23.4084C3.219 21.0903 1.798 17.9619 1.798 14.4855C1.798 7.50375 7.511 1.79619 14.5 1.79619C21.489 1.79619 27.202 7.50375 27.202 14.4855C27.1982 17.8204 25.874 21.0182 23.519 23.3794Z" fill="#111729"/>
</svg>
