<svg width="20" height="16" viewBox="0 0 20 16" fill="none" xmlns="http://www.w3.org/2000/svg">
<path d="M7.5 8C8.49456 8 9.44839 7.60491 10.1517 6.90165C10.8549 6.19839 11.25 5.24456 11.25 4.25C11.25 3.25544 10.8549 2.30161 10.1517 1.59835C9.44839 0.895088 8.49456 0.5 7.5 0.5C6.50544 0.5 5.55161 0.895088 4.84835 1.59835C4.14509 2.30161 3.75 3.25544 3.75 4.25C3.75 5.24456 4.14509 6.19839 4.84835 6.90165C5.55161 7.60491 6.50544 8 7.5 8ZM10 4.25C10 4.91304 9.73661 5.54893 9.26777 6.01777C8.79893 6.48661 8.16304 6.75 7.5 6.75C6.83696 6.75 6.20107 6.48661 5.73223 6.01777C5.26339 5.54893 5 4.91304 5 4.25C5 3.58696 5.26339 2.95107 5.73223 2.48223C6.20107 2.01339 6.83696 1.75 7.5 1.75C8.16304 1.75 8.79893 2.01339 9.26777 2.48223C9.73661 2.95107 10 3.58696 10 4.25ZM15 14.25C15 15.5 13.75 15.5 13.75 15.5H1.25C1.25 15.5 0 15.5 0 14.25C0 13 1.25 9.25 7.5 9.25C13.75 9.25 15 13 15 14.25ZM13.75 14.245C13.7487 13.9375 13.5575 13.0125 12.71 12.165C11.895 11.35 10.3612 10.5 7.5 10.5C4.6375 10.5 3.105 11.35 2.29 12.165C1.4425 13.0125 1.2525 13.9375 1.25 14.245H13.75Z" fill="#495567"/>
<path fill-rule="evenodd" clip-rule="evenodd" d="M16.875 4.25C17.0408 4.25 17.1997 4.31585 17.3169 4.43306C17.4342 4.55027 17.5 4.70924 17.5 4.875V6.75H19.375C19.5408 6.75 19.6997 6.81585 19.8169 6.93306C19.9342 7.05027 20 7.20924 20 7.375C20 7.54076 19.9342 7.69973 19.8169 7.81694C19.6997 7.93415 19.5408 8 19.375 8H17.5V9.875C17.5 10.0408 17.4342 10.1997 17.3169 10.3169C17.1997 10.4342 17.0408 10.5 16.875 10.5C16.7092 10.5 16.5503 10.4342 16.4331 10.3169C16.3158 10.1997 16.25 10.0408 16.25 9.875V8H14.375C14.2092 8 14.0503 7.93415 13.9331 7.81694C13.8158 7.69973 13.75 7.54076 13.75 7.375C13.75 7.20924 13.8158 7.05027 13.9331 6.93306C14.0503 6.81585 14.2092 6.75 14.375 6.75H16.25V4.875C16.25 4.70924 16.3158 4.55027 16.4331 4.43306C16.5503 4.31585 16.7092 4.25 16.875 4.25Z" fill="#495567"/>
</svg>
