<svg width="46" height="62" viewBox="0 0 46 62" fill="none" xmlns="http://www.w3.org/2000/svg">
<g opacity="0.3">
<path opacity="0.3" d="M39.0757 12.8069C37.5461 12.8056 36.0796 12.242 34.9981 11.2399C33.9165 10.2378 33.3082 8.8791 33.3068 7.46196V0.0407715H7.52868C5.53196 0.0407715 3.617 0.775695 2.20511 2.08383C0.793216 3.39197 0 5.16614 0 7.01612V49.0654C0 50.9153 0.793216 52.6896 2.20511 53.9977C3.617 55.3058 5.53196 56.0408 7.52868 56.0408H38.4713C40.468 56.0408 42.383 55.3058 43.7949 53.9977C45.2068 52.6896 46 50.9153 46 49.0654V12.8069H39.0757Z" fill="#00C650"/>
</g>
<path d="M45.9999 13.8195H39.0756C37.546 13.818 36.0795 13.2097 34.998 12.1282C33.9164 11.0466 33.3081 9.58014 33.3066 8.0506V0.0407715L45.9999 13.8195Z" fill="#00C650"/>
<path d="M33.2622 40.8086H12.7493C10.9728 40.8086 9.52637 39.0404 9.52637 36.8638V21.9828C9.52637 19.809 10.9728 18.0408 12.7493 18.0408H33.2706C35.0444 18.0408 36.4908 19.809 36.4908 21.9828V36.8638C36.4824 39.0404 35.036 40.8086 33.2622 40.8086ZM12.7493 20.0551C11.8793 20.0551 11.1743 20.9196 11.1743 21.9828V36.8638C11.1743 37.9269 11.8793 38.7914 12.7493 38.7914H33.2706C34.1379 38.7914 34.8429 37.9269 34.8429 36.8638V21.9828C34.8429 20.9196 34.1379 20.0551 33.2706 20.0551H12.7493Z" fill="#00C650"/>
<path d="M35.6598 31.8477H10.3433V33.8648H35.6598V31.8477Z" fill="#00C650"/>
<path d="M35.6598 24.9316H10.3433V26.9488H35.6598V24.9316Z" fill="#00C650"/>
<path d="M29.1749 19.0481H27.1577V39.7987H29.1749V19.0481Z" fill="#00C650"/>
<path d="M18.8428 19.0481H16.8257V39.7987H18.8428V19.0481Z" fill="#00C650"/>
<path d="M36.5256 46.0408H9.47444C7.55556 46.0408 6 47.5949 6 49.512V57.5696C6 59.4867 7.55556 61.0408 9.47444 61.0408H36.5256C38.4445 61.0408 40 59.4867 40 57.5696V49.512C40 47.5949 38.4445 46.0408 36.5256 46.0408Z" fill="#00C650"/>
<path d="M14.736 55.3145V56.9776H13V55.3145H14.736Z" fill="white"/>
<path d="M19.8148 56.9776L18.3555 54.8363L17.099 56.9776H15.1786L17.3941 53.4363L15.1094 50.0986H17.099L18.5215 52.1712L19.748 50.0986H21.6592L19.4736 53.5621L21.8068 56.9776H19.8148Z" fill="white"/>
<path d="M27.1555 56.0444C26.9565 56.3603 26.671 56.6135 26.3324 56.7742C25.9202 56.9657 25.4686 57.0589 25.0137 57.0464C24.3273 57.0749 23.6509 56.8761 23.0909 56.4814C22.8432 56.2969 22.6406 56.0594 22.4981 55.7865C22.3556 55.5136 22.2769 55.2124 22.2679 54.9052H24.0523C24.065 55.1369 24.1645 55.3555 24.3313 55.5183C24.4972 55.6718 24.7177 55.7541 24.9445 55.747C25.0369 55.7524 25.1295 55.7396 25.217 55.7094C25.3044 55.6792 25.385 55.6321 25.454 55.5709C25.5155 55.5117 25.5639 55.4404 25.5961 55.3617C25.6282 55.2829 25.6434 55.1983 25.6407 55.1133C25.643 55.0327 25.6289 54.9525 25.5992 54.8774C25.5695 54.8023 25.5248 54.734 25.4678 54.6764C25.3458 54.5539 25.201 54.456 25.0414 54.3882C24.8738 54.315 24.6387 54.2257 24.3359 54.1205C23.9684 54.0003 23.6095 53.8559 23.2615 53.6881C22.9755 53.5419 22.7301 53.3283 22.5468 53.0659C22.3341 52.7483 22.2291 52.3716 22.2471 51.9907C22.2388 51.6133 22.3483 51.2425 22.5607 50.9292C22.7788 50.6231 23.0803 50.3851 23.4298 50.2429C23.8328 50.0803 24.2653 50.0024 24.7002 50.0142C25.3603 49.978 26.0125 50.1714 26.5445 50.5609C26.771 50.7437 26.9564 50.9714 27.089 51.2294C27.2216 51.4875 27.2984 51.7701 27.3145 52.0593H25.5001C25.4799 51.8569 25.3923 51.667 25.2511 51.5195C25.179 51.4509 25.0936 51.3977 25 51.3631C24.9065 51.3285 24.8068 51.3131 24.7071 51.3181C24.5342 51.3103 24.3644 51.3657 24.2298 51.4737C24.1678 51.5321 24.1194 51.6034 24.0883 51.6825C24.0572 51.7616 24.0442 51.8466 24.05 51.9312C24.0464 52.085 24.1045 52.2339 24.2114 52.3453C24.3261 52.4642 24.4642 52.5584 24.6171 52.6221C24.7808 52.693 25.016 52.7845 25.3226 52.8943C25.6967 53.0153 26.0612 53.1636 26.4131 53.3381C26.7005 53.492 26.9483 53.7096 27.137 53.9741C27.3521 54.2968 27.4587 54.6788 27.4413 55.0653C27.4382 55.4115 27.3394 55.7502 27.1555 56.0444Z" fill="white"/>
<path d="M30.0449 55.7034H32.2904V56.9776H28.3711V50.0986H30.0495L30.0449 55.7034Z" fill="white"/>
</svg>
